<?plantuml 1.2026.2?><svg xmlns="http://www.w3.org/2000/svg" xmlns:xlink="http://www.w3.org/1999/xlink" contentStyleType="text/css" data-diagram-type="CLASS" height="339px" preserveAspectRatio="none" style="width:2610px;height:339px;background:#FFFFFF;" version="1.1" viewBox="0 0 2610 339" width="2610px" zoomAndPan="magnify"><title>RaiUtils Class Diagram</title><defs/><g><g class="title" data-source-line="6"><text fill="#000000" font-family="sans-serif" font-size="14" font-weight="bold" lengthAdjust="spacing" textLength="164.5547" x="1215.7882" y="23.5352">RaiUtils Class Diagram</text></g><!--class RaiUtils_Email--><g class="entity" data-qualified-name="RaiUtils_Email" data-source-line="8" id="ent0002"><rect fill="#F1F1F1" height="113.9531" rx="2.5" ry="2.5" style="stroke:#181818;stroke-width:0.5;" width="142.5117" x="552.3" y="65.2883"/><ellipse cx="575.7604" cy="81.2883" fill="#ADD1B2" rx="11" ry="11" style="stroke:#181818;stroke-width:1;"/><path d="M578.2335,87.4313 Q577.6524,87.7302 577.0133,87.8796 Q576.3741,88.029 575.6686,88.029 Q573.1617,88.029 571.8419,86.3771 Q570.5221,84.7253 570.5221,81.6042 Q570.5221,78.4748 571.8419,76.8229 Q573.1617,75.1711 575.6686,75.1711 Q576.3741,75.1711 577.0216,75.3205 Q577.669,75.4699 578.2335,75.7688 L578.2335,78.4914 Q577.6026,77.9104 577.0091,77.6406 Q576.4156,77.3708 575.7848,77.3708 Q574.44,77.3708 573.7552,78.4375 Q573.0704,79.5041 573.0704,81.6042 Q573.0704,83.696 573.7552,84.7626 Q574.44,85.8293 575.7848,85.8293 Q576.4156,85.8293 577.0091,85.5595 Q577.6026,85.2897 578.2335,84.7087 Z " fill="#000000"/><text fill="#000000" font-family="sans-serif" font-size="14" lengthAdjust="spacing" textLength="91.7109" x="591.6404" y="86.5793">RaiUtils.Email</text><line style="stroke:#181818;stroke-width:0.5;" x1="553.3" x2="693.8117" y1="97.2883" y2="97.2883"/><text fill="#000000" font-family="sans-serif" font-size="14" lengthAdjust="spacing" textLength="114.1123" x="558.3" y="114.8234">-address : string</text><text fill="#000000" font-family="sans-serif" font-size="14" lengthAdjust="spacing" textLength="88.2656" x="558.3" y="131.3117">+Valid : bool</text><text fill="#000000" font-family="sans-serif" font-size="14" lengthAdjust="spacing" textLength="99.0801" x="558.3" y="147.8">+Invalid : bool</text><line style="stroke:#181818;stroke-width:0.5;" x1="553.3" x2="693.8117" y1="154.7531" y2="154.7531"/><text fill="#000000" font-family="sans-serif" font-size="14" lengthAdjust="spacing" textLength="130.5117" x="558.3" y="172.2883">+ToString() : string</text></g><!--class RaiUtils_ParameterDictionary--><g class="entity" data-qualified-name="RaiUtils_ParameterDictionary" data-source-line="15" id="ent0003"><rect fill="#F1F1F1" height="64.4883" rx="2.5" ry="2.5" style="stroke:#181818;stroke-width:0.5;" width="618.9355" x="801.08" y="90.0183"/><ellipse cx="1009.8769" cy="106.0183" fill="#ADD1B2" rx="11" ry="11" style="stroke:#181818;stroke-width:1;"/><path d="M1012.35,112.1613 Q1011.769,112.4602 1011.1298,112.6096 Q1010.4906,112.759 1009.7851,112.759 Q1007.2782,112.759 1005.9584,111.1071 Q1004.6386,109.4553 1004.6386,106.3342 Q1004.6386,103.2048 1005.9584,101.5529 Q1007.2782,99.9011 1009.7851,99.9011 Q1010.4906,99.9011 1011.1381,100.0505 Q1011.7856,100.1999 1012.35,100.4988 L1012.35,103.2214 Q1011.7192,102.6404 1011.1257,102.3706 Q1010.5321,102.1008 1009.9013,102.1008 Q1008.5566,102.1008 1007.8717,103.1675 Q1007.1869,104.2341 1007.1869,106.3342 Q1007.1869,108.426 1007.8717,109.4926 Q1008.5566,110.5593 1009.9013,110.5593 Q1010.5321,110.5593 1011.1257,110.2895 Q1011.7192,110.0197 1012.35,109.4387 Z " fill="#000000"/><text fill="#000000" font-family="sans-serif" font-size="14" lengthAdjust="spacing" textLength="192.8418" x="1030.3769" y="111.3093">RaiUtils.ParameterDictionary</text><line style="stroke:#181818;stroke-width:0.5;" x1="802.08" x2="1419.0155" y1="122.0183" y2="122.0183"/><line style="stroke:#181818;stroke-width:0.5;" x1="802.08" x2="1419.0155" y1="130.0183" y2="130.0183"/><text fill="#000000" font-family="sans-serif" font-size="14" lengthAdjust="spacing" textLength="606.9355" x="807.08" y="147.5534">+ParameterDictionary(paramArray : System.Collections.Specialized.NameValueCollection)</text></g><!--class RaiUtils_SearchExpression--><g class="entity" data-qualified-name="RaiUtils_SearchExpression" data-source-line="19" id="ent0004"><rect fill="#F1F1F1" height="113.9531" rx="2.5" ry="2.5" style="stroke:#181818;stroke-width:0.5;" width="253.1035" x="7" y="65.2883"/><ellipse cx="43.1926" cy="81.2883" fill="#ADD1B2" rx="11" ry="11" style="stroke:#181818;stroke-width:1;"/><path d="M45.6658,87.4313 Q45.0847,87.7302 44.4456,87.8796 Q43.8064,88.029 43.1008,88.029 Q40.594,88.029 39.2742,86.3771 Q37.9543,84.7253 37.9543,81.6042 Q37.9543,78.4748 39.2742,76.8229 Q40.594,75.1711 43.1008,75.1711 Q43.8064,75.1711 44.4539,75.3205 Q45.1013,75.4699 45.6658,75.7688 L45.6658,78.4914 Q45.0349,77.9104 44.4414,77.6406 Q43.8479,77.3708 43.217,77.3708 Q41.8723,77.3708 41.1875,78.4375 Q40.5027,79.5041 40.5027,81.6042 Q40.5027,83.696 41.1875,84.7626 Q41.8723,85.8293 43.217,85.8293 Q43.8479,85.8293 44.4414,85.5595 Q45.0349,85.2897 45.6658,84.7087 Z " fill="#000000"/><text fill="#000000" font-family="sans-serif" font-size="14" lengthAdjust="spacing" textLength="174.0088" x="61.9021" y="86.5793">RaiUtils.SearchExpression</text><line style="stroke:#181818;stroke-width:0.5;" x1="8" x2="259.1035" y1="97.2883" y2="97.2883"/><text fill="#000000" font-family="sans-serif" font-size="14" lengthAdjust="spacing" textLength="178.124" x="13" y="114.8234">-conditions : List&lt;string&gt;</text><text fill="#000000" font-family="sans-serif" font-size="14" lengthAdjust="spacing" textLength="194.291" x="13" y="131.3117">+ConditionsAsString : string</text><line style="stroke:#181818;stroke-width:0.5;" x1="8" x2="259.1035" y1="138.2648" y2="138.2648"/><text fill="#000000" font-family="sans-serif" font-size="14" lengthAdjust="spacing" textLength="192.4727" x="13" y="155.8">+IsMatch(obj : object) : bool</text><text fill="#000000" font-family="sans-serif" font-size="14" lengthAdjust="spacing" textLength="241.1035" x="13" y="172.2883">+SearchExpression(pattern : string)</text></g><!--class RaiUtils_JsonConversionExtensions--><g class="entity" data-qualified-name="RaiUtils_JsonConversionExtensions" data-source-line="26" id="ent0005"><rect fill="#F1F1F1" height="89.5977" rx="2.5" ry="2.5" style="stroke:#181818;stroke-width:0.5;" width="556.8037" x="1490.15" y="77.4583"/><ellipse cx="1647.4347" cy="97.7688" fill="#ADD1B2" rx="11" ry="11" style="stroke:#181818;stroke-width:1;"/><path d="M1649.9078,103.9119 Q1649.3268,104.2107 1648.6876,104.3601 Q1648.0484,104.5096 1647.3429,104.5096 Q1644.836,104.5096 1643.5162,102.8577 Q1642.1964,101.2058 1642.1964,98.0847 Q1642.1964,94.9554 1643.5162,93.3035 Q1644.836,91.6516 1647.3429,91.6516 Q1648.0484,91.6516 1648.6959,91.8011 Q1649.3434,91.9505 1649.9078,92.2493 L1649.9078,94.972 Q1649.277,94.3909 1648.6834,94.1211 Q1648.0899,93.8513 1647.4591,93.8513 Q1646.1144,93.8513 1645.4295,94.918 Q1644.7447,95.9846 1644.7447,98.0847 Q1644.7447,100.1765 1645.4295,101.2432 Q1646.1144,102.3098 1647.4591,102.3098 Q1648.0899,102.3098 1648.6834,102.0401 Q1649.277,101.7703 1649.9078,101.1892 Z " fill="#000000"/><text fill="#000000" font-family="sans-serif" font-size="12" font-style="italic" lengthAdjust="spacing" textLength="43.9102" x="1762.8468" y="94.0598">&#171;static&#187;</text><text fill="#000000" font-family="sans-serif" font-size="14" lengthAdjust="spacing" textLength="233.7344" x="1667.9347" y="110.1263">RaiUtils.JsonConversionExtensions</text><line style="stroke:#181818;stroke-width:0.5;" x1="1491.15" x2="2045.9537" y1="118.0794" y2="118.0794"/><line style="stroke:#181818;stroke-width:0.5;" x1="1491.15" x2="2045.9537" y1="126.0794" y2="126.0794"/><text fill="#000000" font-family="sans-serif" font-size="14" lengthAdjust="spacing" textLength="544.8037" x="1496.15" y="143.6145">+ToDictionary(json : Newtonsoft.Json.Linq.JObject) : IDictionary&lt;string, object&gt;</text><text fill="#000000" font-family="sans-serif" font-size="14" lengthAdjust="spacing" textLength="374.8145" x="1496.15" y="160.1028">+ToArray(array : Newtonsoft.Json.Linq.JArray) : object[]</text></g><!--class RaiUtils_RandomExtensions--><g class="entity" data-qualified-name="RaiUtils_RandomExtensions" data-source-line="31" id="ent0006"><rect fill="#F1F1F1" height="155.5508" rx="2.5" ry="2.5" style="stroke:#181818;stroke-width:0.5;" width="521.1611" x="2081.97" y="44.4883"/><ellipse cx="2246.0564" cy="64.7988" fill="#ADD1B2" rx="11" ry="11" style="stroke:#181818;stroke-width:1;"/><path d="M2248.5296,70.9419 Q2247.9485,71.2407 2247.3094,71.3901 Q2246.6702,71.5396 2245.9646,71.5396 Q2243.4578,71.5396 2242.138,69.8877 Q2240.8181,68.2358 2240.8181,65.1147 Q2240.8181,61.9854 2242.138,60.3335 Q2243.4578,58.6816 2245.9646,58.6816 Q2246.6702,58.6816 2247.3177,58.8311 Q2247.9651,58.9805 2248.5296,59.2793 L2248.5296,62.002 Q2247.8987,61.4209 2247.3052,61.1511 Q2246.7117,60.8813 2246.0808,60.8813 Q2244.7361,60.8813 2244.0513,61.948 Q2243.3665,63.0146 2243.3665,65.1147 Q2243.3665,67.2065 2244.0513,68.2732 Q2244.7361,69.3398 2246.0808,69.3398 Q2246.7117,69.3398 2247.3052,69.0701 Q2247.8987,68.8003 2248.5296,68.2192 Z " fill="#000000"/><text fill="#000000" font-family="sans-serif" font-size="12" font-style="italic" lengthAdjust="spacing" textLength="43.9102" x="2336.8455" y="61.0898">&#171;static&#187;</text><text fill="#000000" font-family="sans-serif" font-size="14" lengthAdjust="spacing" textLength="184.4883" x="2266.5564" y="77.1563">RaiUtils.RandomExtensions</text><line style="stroke:#181818;stroke-width:0.5;" x1="2082.97" x2="2602.1311" y1="85.1094" y2="85.1094"/><line style="stroke:#181818;stroke-width:0.5;" x1="2082.97" x2="2602.1311" y1="93.1094" y2="93.1094"/><text fill="#000000" font-family="sans-serif" font-size="14" lengthAdjust="spacing" textLength="386.9551" x="2087.97" y="110.6445">+Random&lt;T&gt;(list : IEnumerable&lt;T&gt;, rand : Random) : T</text><text fill="#000000" font-family="sans-serif" font-size="14" lengthAdjust="spacing" textLength="400.2988" x="2087.97" y="127.1328">+Shuffle&lt;T&gt;(source : IEnumerable&lt;T&gt;) : IEnumerable&lt;T&gt;</text><text fill="#000000" font-family="sans-serif" font-size="14" lengthAdjust="spacing" textLength="509.1611" x="2087.97" y="143.6211">+Shuffle&lt;T&gt;(source : IEnumerable&lt;T&gt;, rand : Random) : IEnumerable&lt;T&gt;</text><text fill="#000000" font-family="sans-serif" font-size="14" lengthAdjust="spacing" textLength="191.1875" x="2087.97" y="160.1094">+Shuffle&lt;T&gt;(list : IList&lt;T&gt;)</text><text fill="#000000" font-family="sans-serif" font-size="14" lengthAdjust="spacing" textLength="300.0498" x="2087.97" y="176.5977">+Shuffle&lt;T&gt;(list : IList&lt;T&gt;, rand : Random)</text><text fill="#000000" font-family="sans-serif" font-size="14" lengthAdjust="spacing" textLength="480.5391" x="2087.97" y="193.0859">+TakeAny&lt;T&gt;(source : IEnumerable&lt;T&gt;, take : int) : IEnumerable&lt;T&gt;</text></g><!--class System_Collections_Specialized_StringDictionary--><g class="entity" data-qualified-name="System_Collections_Specialized_StringDictionary" data-source-line="40" id="ent0007"><rect fill="#F1F1F1" height="48" rx="2.5" ry="2.5" style="stroke:#181818;stroke-width:0.5;" width="353.2959" x="590.9" y="280.9983"/><ellipse cx="605.9" cy="296.9983" fill="#ADD1B2" rx="11" ry="11" style="stroke:#181818;stroke-width:1;"/><path d="M608.3731,303.1413 Q607.7921,303.4402 607.1529,303.5896 Q606.5138,303.739 605.8082,303.739 Q603.3014,303.739 601.9815,302.0871 Q600.6617,300.4353 600.6617,297.3142 Q600.6617,294.1848 601.9815,292.5329 Q603.3014,290.8811 605.8082,290.8811 Q606.5138,290.8811 607.1612,291.0305 Q607.8087,291.1799 608.3731,291.4788 L608.3731,294.2014 Q607.7423,293.6204 607.1488,293.3506 Q606.5553,293.0808 605.9244,293.0808 Q604.5797,293.0808 603.8949,294.1475 Q603.2101,295.2141 603.2101,297.3142 Q603.2101,299.406 603.8949,300.4726 Q604.5797,301.5393 605.9244,301.5393 Q606.5553,301.5393 607.1488,301.2695 Q607.7423,300.9997 608.3731,300.4187 Z " fill="#000000"/><text fill="#000000" font-family="sans-serif" font-size="14" lengthAdjust="spacing" textLength="321.2959" x="619.9" y="302.2893">System.Collections.Specialized.StringDictionary</text><line style="stroke:#181818;stroke-width:0.5;" x1="591.9" x2="943.1959" y1="312.9983" y2="312.9983"/><line style="stroke:#181818;stroke-width:0.5;" x1="591.9" x2="943.1959" y1="320.9983" y2="320.9983"/></g><!--class System_Collections_Specialized_NameValueCollection--><g class="entity" data-qualified-name="System_Collections_Specialized_NameValueCollection" data-source-line="41" id="ent0008"><rect fill="#F1F1F1" height="48" rx="2.5" ry="2.5" style="stroke:#181818;stroke-width:0.5;" width="388.5625" x="979.27" y="280.9983"/><ellipse cx="994.27" cy="296.9983" fill="#ADD1B2" rx="11" ry="11" style="stroke:#181818;stroke-width:1;"/><path d="M996.7431,303.1413 Q996.1621,303.4402 995.5229,303.5896 Q994.8838,303.739 994.1782,303.739 Q991.6714,303.739 990.3515,302.0871 Q989.0317,300.4353 989.0317,297.3142 Q989.0317,294.1848 990.3515,292.5329 Q991.6714,290.8811 994.1782,290.8811 Q994.8838,290.8811 995.5312,291.0305 Q996.1787,291.1799 996.7431,291.4788 L996.7431,294.2014 Q996.1123,293.6204 995.5188,293.3506 Q994.9253,293.0808 994.2944,293.0808 Q992.9497,293.0808 992.2649,294.1475 Q991.5801,295.2141 991.5801,297.3142 Q991.5801,299.406 992.2649,300.4726 Q992.9497,301.5393 994.2944,301.5393 Q994.9253,301.5393 995.5188,301.2695 Q996.1123,300.9997 996.7431,300.4187 Z " fill="#000000"/><text fill="#000000" font-family="sans-serif" font-size="14" lengthAdjust="spacing" textLength="356.5625" x="1008.27" y="302.2893">System.Collections.Specialized.NameValueCollection</text><line style="stroke:#181818;stroke-width:0.5;" x1="980.27" x2="1366.8325" y1="312.9983" y2="312.9983"/><line style="stroke:#181818;stroke-width:0.5;" x1="980.27" x2="1366.8325" y1="320.9983" y2="320.9983"/></g><!--class Newtonsoft_Json_Linq_JObject--><g class="entity" data-qualified-name="Newtonsoft_Json_Linq_JObject" data-source-line="42" id="ent0009"><rect fill="#F1F1F1" height="48" rx="2.5" ry="2.5" style="stroke:#181818;stroke-width:0.5;" width="229.1621" x="1411.97" y="280.9983"/><ellipse cx="1426.97" cy="296.9983" fill="#ADD1B2" rx="11" ry="11" style="stroke:#181818;stroke-width:1;"/><path d="M1429.4431,303.1413 Q1428.8621,303.4402 1428.2229,303.5896 Q1427.5838,303.739 1426.8782,303.739 Q1424.3714,303.739 1423.0515,302.0871 Q1421.7317,300.4353 1421.7317,297.3142 Q1421.7317,294.1848 1423.0515,292.5329 Q1424.3714,290.8811 1426.8782,290.8811 Q1427.5838,290.8811 1428.2312,291.0305 Q1428.8787,291.1799 1429.4431,291.4788 L1429.4431,294.2014 Q1428.8123,293.6204 1428.2188,293.3506 Q1427.6253,293.0808 1426.9944,293.0808 Q1425.6497,293.0808 1424.9649,294.1475 Q1424.2801,295.2141 1424.2801,297.3142 Q1424.2801,299.406 1424.9649,300.4726 Q1425.6497,301.5393 1426.9944,301.5393 Q1427.6253,301.5393 1428.2188,301.2695 Q1428.8123,300.9997 1429.4431,300.4187 Z " fill="#000000"/><text fill="#000000" font-family="sans-serif" font-size="14" lengthAdjust="spacing" textLength="197.1621" x="1440.97" y="302.2893">Newtonsoft.Json.Linq.JObject</text><line style="stroke:#181818;stroke-width:0.5;" x1="1412.97" x2="1640.1321" y1="312.9983" y2="312.9983"/><line style="stroke:#181818;stroke-width:0.5;" x1="1412.97" x2="1640.1321" y1="320.9983" y2="320.9983"/></g><!--class Newtonsoft_Json_Linq_JArray--><g class="entity" data-qualified-name="Newtonsoft_Json_Linq_JArray" data-source-line="43" id="ent0010"><rect fill="#F1F1F1" height="48" rx="2.5" ry="2.5" style="stroke:#181818;stroke-width:0.5;" width="221.1709" x="1675.97" y="280.9983"/><ellipse cx="1690.97" cy="296.9983" fill="#ADD1B2" rx="11" ry="11" style="stroke:#181818;stroke-width:1;"/><path d="M1693.4431,303.1413 Q1692.8621,303.4402 1692.2229,303.5896 Q1691.5838,303.739 1690.8782,303.739 Q1688.3714,303.739 1687.0515,302.0871 Q1685.7317,300.4353 1685.7317,297.3142 Q1685.7317,294.1848 1687.0515,292.5329 Q1688.3714,290.8811 1690.8782,290.8811 Q1691.5838,290.8811 1692.2312,291.0305 Q1692.8787,291.1799 1693.4431,291.4788 L1693.4431,294.2014 Q1692.8123,293.6204 1692.2188,293.3506 Q1691.6253,293.0808 1690.9944,293.0808 Q1689.6497,293.0808 1688.9649,294.1475 Q1688.2801,295.2141 1688.2801,297.3142 Q1688.2801,299.406 1688.9649,300.4726 Q1689.6497,301.5393 1690.9944,301.5393 Q1691.6253,301.5393 1692.2188,301.2695 Q1692.8123,300.9997 1693.4431,300.4187 Z " fill="#000000"/><text fill="#000000" font-family="sans-serif" font-size="14" lengthAdjust="spacing" textLength="189.1709" x="1704.97" y="302.2893">Newtonsoft.Json.Linq.JArray</text><line style="stroke:#181818;stroke-width:0.5;" x1="1676.97" x2="1896.1409" y1="312.9983" y2="312.9983"/><line style="stroke:#181818;stroke-width:0.5;" x1="1676.97" x2="1896.1409" y1="320.9983" y2="320.9983"/></g><g class="entity" data-qualified-name="GMN15" data-source-line="51" id="ent0016"><path d="M295.57,86.6383 L295.57,157.8805 L499.5412,157.8805 L499.5412,96.6383 L489.5412,86.6383 L295.57,86.6383" fill="#FEFFDD" style="stroke:#181818;stroke-width:0.5;"/><path d="M489.5412,86.6383 L489.5412,96.6383 L499.5412,96.6383 L489.5412,86.6383" fill="#FEFFDD" style="stroke:#181818;stroke-width:1;"/><text fill="#000000" font-family="sans-serif" font-size="13" lengthAdjust="spacing" textLength="104.2666" x="301.57" y="104.2066">Pattern features:</text><ellipse cx="307.07" cy="114.7594" fill="#000000" rx="2.5" ry="2.5"/><text fill="#000000" font-family="sans-serif" font-size="13" lengthAdjust="spacing" textLength="53.0537" x="313.57" y="119.5172">wildcard</text><text fill="#000000" font-family="sans-serif" font-size="13" lengthAdjust="spacing" textLength="125.271" x="301.57" y="134.8277">+ AND within token</text><text fill="#000000" font-family="sans-serif" font-size="13" lengthAdjust="spacing" textLength="182.9712" x="301.57" y="150.1383">field=value scoped matching</text></g><g class="entity" data-qualified-name="GMN18" data-source-line="58" id="ent0019"><path d="M239.02,277.0383 L239.02,332.9699 L556.0747,332.9699 L556.0747,287.0383 L546.0747,277.0383 L239.02,277.0383" fill="#FEFFDD" style="stroke:#181818;stroke-width:0.5;"/><path d="M546.0747,277.0383 L546.0747,287.0383 L556.0747,287.0383 L546.0747,277.0383" fill="#FEFFDD" style="stroke:#181818;stroke-width:1;"/><text fill="#000000" font-family="sans-serif" font-size="13" lengthAdjust="spacing" textLength="118.6313" x="245.02" y="294.6066">OsLib relationship:</text><text fill="#000000" font-family="sans-serif" font-size="13" lengthAdjust="spacing" textLength="296.0547" x="245.02" y="309.9172">No direct inheritance or type usage from OsLib</text><text fill="#000000" font-family="sans-serif" font-size="13" lengthAdjust="spacing" textLength="259.3208" x="245.02" y="325.2277">is present in current RaiUtils source files.</text></g><!--link RaiUtils_ParameterDictionary to System_Collections_Specialized_StringDictionary--><g class="link" data-entity-1="ent0003" data-entity-2="ent0007" data-link-type="extension" data-source-line="45" id="lnk11"><path codeLine="45" d="M1050.41,154.9483 C982.3,190.8383 888.8344,240.097 827.9744,272.167" fill="none" id="RaiUtils_ParameterDictionary-to-System_Collections_Specialized_StringDictionary" style="stroke:#181818;stroke-width:1;"/><polygon fill="none" points="812.05,280.5583,830.7715,277.4751,825.1773,266.8588,812.05,280.5583" style="stroke:#181818;stroke-width:1;"/></g><!--link RaiUtils_ParameterDictionary to System_Collections_Specialized_NameValueCollection--><g class="link" data-entity-1="ent0003" data-entity-2="ent0008" data-link-type="dependency" data-source-line="46" id="lnk12"><path codeLine="46" d="M1121.53,154.7483 C1134.04,190.6483 1152.2345,242.8528 1163.4345,274.9728" fill="none" id="RaiUtils_ParameterDictionary-to-System_Collections_Specialized_NameValueCollection" style="stroke:#181818;stroke-width:1;stroke-dasharray:7,7;"/><polygon fill="#181818" points="1165.41,280.6383,1166.2237,270.8231,1163.7637,275.9171,1158.6698,273.4571,1165.41,280.6383" style="stroke:#181818;stroke-width:1;"/><text fill="#000000" font-family="sans-serif" font-size="13" lengthAdjust="spacing" textLength="61.877" x="1154.17" y="243.6066">ctor input</text></g><!--link RaiUtils_JsonConversionExtensions to Newtonsoft_Json_Linq_JObject--><g class="link" data-entity-1="ent0005" data-entity-2="ent0009" data-link-type="dependency" data-source-line="47" id="lnk13"><path codeLine="47" d="M1709.35,167.4783 C1661.5,203.2183 1600.8171,248.5377 1562.6071,277.0777" fill="none" id="RaiUtils_JsonConversionExtensions-to-Newtonsoft_Json_Linq_JObject" style="stroke:#181818;stroke-width:1;stroke-dasharray:7,7;"/><polygon fill="#181818" points="1557.8,280.6683,1567.4043,278.4872,1561.8059,277.6762,1562.6169,272.0778,1557.8,280.6683" style="stroke:#181818;stroke-width:1;"/><text fill="#000000" font-family="sans-serif" font-size="13" lengthAdjust="spacing" textLength="81.9927" x="1619.76" y="243.6066">extension on</text></g><!--link RaiUtils_JsonConversionExtensions to Newtonsoft_Json_Linq_JArray--><g class="link" data-entity-1="ent0005" data-entity-2="ent0010" data-link-type="dependency" data-source-line="48" id="lnk14"><path codeLine="48" d="M1772.96,167.4783 C1776.51,203.2183 1780.7959,246.1578 1783.6359,274.6978" fill="none" id="RaiUtils_JsonConversionExtensions-to-Newtonsoft_Json_Linq_JArray" style="stroke:#181818;stroke-width:1;stroke-dasharray:7,7;"/><polygon fill="#181818" points="1784.23,280.6683,1787.3192,271.3164,1783.7349,275.6929,1779.3585,272.1086,1784.23,280.6683" style="stroke:#181818;stroke-width:1;"/><text fill="#000000" font-family="sans-serif" font-size="13" lengthAdjust="spacing" textLength="81.9927" x="1781.73" y="243.6066">extension on</text></g><!--link RaiUtils_SearchExpression to GMN15--><g class="link" data-entity-1="ent0004" data-entity-2="ent0016" data-link-type="association" data-source-line="51" id="lnk17"><path d="M260.4,122.2583 C272,122.2583 283.61,122.2583 295.22,122.2583" fill="none" id="RaiUtils_SearchExpression-GMN15" style="stroke:#181818;stroke-width:1;stroke-dasharray:7,7;"/></g><!--link GMN15 to GMN18--><g class="link" data-entity-1="ent0016" data-entity-2="ent0019" data-link-type="association" data-source-line="58" id="lnk20"><path d="M397.55,158.1083 C397.55,192.6783 397.55,244.9483 397.55,276.6383" fill="none" id="GMN15-GMN18" style="stroke:#181818;stroke-width:1;stroke-dasharray:7,7;"/></g><?plantuml-src fLPDKzim4BtxLsWu9GKyFJFKCnd88GmD34bxwNGoYhsE5sp9bTP0QFlVkvBpwHX3sql6Nhst-_P9AyS-e2gbaOM8SsdjWCZWl28OnLfDy0N4ny1c-aca27bYw-S2ADFy4X1I3k9EuXV2t8eBbq5SebnmlY3m2SNHUZaS5XBp8o7jXZ7p8V4p4E9K9ea1nfy9onBKWcF7NsME2KVcMkVkVQGU6v6fddXqhxyb_ZuiVUiw109pYJ6XLj8izuMq0BoiuvQ5dlThO8nSSj79qX8KuONES_086qvAY965la0IZfdDRLIm1VJR54v0cZWRFfVE10RjoskkrfRn5YNeIxAEQxHqNZiGEU4NcyM1hJtQitPaFqkAivwUttESVrbRVyVOPaLkcjW5jKdIsiMLrOeBFu9ndE4pWN8FTh-Rrr3Yd1kGX74KrUPFzOxhzypYwcDu8iRgb7ory1hLZ_3gPjF0Q4jPsN6oQY-gK_gDwydLzhMdyvZ-nfXltzkQlPCgqSLhJJPN3vgh0UVJg9VprZdbGrKLOEGy1uwU2CC03jSu9sRgDoQhqjGZUbPN9eO3PlyWyZvUIyNED6lP_kHnsUxbPdQ_6V811chPgOaOms5Kr29ekojlZ64z0Otfhpcp7SviXpDhSjvPgcNYtrEjXROks7NaVUejmC_Mp05cAq1t4d_GEtBuzI3el2TFJtz5V-rbPyOmZFx1BZuUCMd3HwMiA7Zxjd5LkfpZVB162zwD_ycu_bhi9GoK9X065na9dRv-s_EetAvktnGaLHm-uzW7yOHv4akJk5aIW_4b1oX39KW_W6FvZ_QdHsUJiB4k8H65k_NTDm1u65tzbOgv9j85SsxiDSw5WLnwqpCiNQsn5WaQPmgg30oIL3ojR3OjIn2LbGiGgT55JMS2Mk7aWt8C4LV6kCVDNuNLkAUOWmstMlu0?></g></svg>