<?plantuml 1.2026.2?><svg xmlns="http://www.w3.org/2000/svg" xmlns:xlink="http://www.w3.org/1999/xlink" contentStyleType="text/css" data-diagram-type="CLASS" height="474px" preserveAspectRatio="none" style="width:2037px;height:474px;background:#FFFFFF;" version="1.1" viewBox="0 0 2037 474" width="2037px" zoomAndPan="magnify"><title>RaiUtils Class Diagram</title><defs/><g><g class="title" data-source-line="3"><text fill="#000000" font-family="sans-serif" font-size="14" font-weight="bold" lengthAdjust="spacing" textLength="164.5547" x="929.3577" y="23.5352">RaiUtils Class Diagram</text></g><!--cluster RaiUtils--><g class="cluster" data-qualified-name="RaiUtils" data-source-line="35" id="ent0002"><path d="M8.5,92.9483 L64.9463,92.9483 A3.75,3.75 0 0 1 67.4463,95.4483 L74.4463,115.4366 L1584.5,115.4366 A2.5,2.5 0 0 1 1587,117.9366 L1587,262.8183 A2.5,2.5 0 0 1 1584.5,265.3183 L8.5,265.3183 A2.5,2.5 0 0 1 6,262.8183 L6,95.4483 A2.5,2.5 0 0 1 8.5,92.9483" fill="none" style="stroke:#000000;stroke-width:1.5;"/><line style="stroke:#000000;stroke-width:1.5;" x1="6" x2="74.4463" y1="115.4366" y2="115.4366"/><text fill="#000000" font-family="sans-serif" font-size="14" font-weight="bold" lengthAdjust="spacing" textLength="55.4463" x="10" y="108.4834">RaiUtils</text></g><!--class Email--><g class="entity" data-qualified-name="RaiUtils.Email" data-source-line="36" id="ent0003"><rect fill="#CCFBF1" height="96.912" rx="2.5" ry="2.5" style="stroke:#0F766E;stroke-width:0.5;" width="125.36" x="267.32" y="140.1783"/><ellipse cx="305.3537" cy="156.1783" fill="#ADD1B2" rx="11" ry="11" style="stroke:#181818;stroke-width:1;"/><path d="M307.8268,162.3213 Q307.2458,162.6202 306.6066,162.7696 Q305.9675,162.919 305.2619,162.919 Q302.7551,162.919 301.4352,161.2671 Q300.1154,159.6153 300.1154,156.4942 Q300.1154,153.3648 301.4352,151.7129 Q302.7551,150.0611 305.2619,150.0611 Q305.9675,150.0611 306.6149,150.2105 Q307.2624,150.3599 307.8268,150.6588 L307.8268,153.3814 Q307.196,152.8004 306.6025,152.5306 Q306.009,152.2608 305.3781,152.2608 Q304.0334,152.2608 303.3486,153.3275 Q302.6638,154.3941 302.6638,156.4942 Q302.6638,158.586 303.3486,159.6526 Q304.0334,160.7193 305.3781,160.7193 Q306.009,160.7193 306.6025,160.4495 Q307.196,160.1797 307.8268,159.5987 Z " fill="#000000"/><text fill="#111827" font-family="Casual" font-size="18" lengthAdjust="spacing" textLength="42.174" x="324.4723" y="161.4073">Email</text><line style="stroke:#0F766E;stroke-width:0.5;" x1="268.32" x2="391.68" y1="172.1783" y2="172.1783"/><g data-visibility-modifier="PRIVATE_FIELD"><rect fill="none" height="6" style="stroke:#C82930;stroke-width:1;" width="6" x="275.32" y="180.7923"/></g><text fill="#053583" font-family="Casual" font-size="12" lengthAdjust="spacing" textLength="86.196" x="287.32" y="185.7783">address : string</text><g data-visibility-modifier="PUBLIC_FIELD"><ellipse cx="278.32" cy="196.0203" fill="none" rx="3" ry="3" style="stroke:#038048;stroke-width:1;"/></g><text fill="#053583" font-family="Casual" font-size="12" lengthAdjust="spacing" textLength="63.9" x="287.32" y="198.0063">Valid : bool</text><g data-visibility-modifier="PUBLIC_FIELD"><ellipse cx="278.32" cy="208.2483" fill="none" rx="3" ry="3" style="stroke:#038048;stroke-width:1;"/></g><text fill="#053583" font-family="Casual" font-size="12" lengthAdjust="spacing" textLength="74.964" x="287.32" y="210.2343">Invalid : bool</text><line style="stroke:#0F766E;stroke-width:0.5;" x1="268.32" x2="391.68" y1="216.8623" y2="216.8623"/><g data-visibility-modifier="PUBLIC_METHOD"><ellipse cx="278.32" cy="228.4763" fill="#84BE84" rx="3" ry="3" style="stroke:#038048;stroke-width:1;"/></g><text fill="#053583" font-family="Casual" font-size="12" lengthAdjust="spacing" textLength="99.36" x="287.32" y="230.4623">ToString() : string</text></g><!--class ParameterDictionary--><g class="entity" data-qualified-name="RaiUtils.ParameterDictionary" data-source-line="43" id="ent0004"><rect fill="#CCFBF1" height="60.228" rx="2.5" ry="2.5" style="stroke:#0F766E;stroke-width:0.5;" width="325.184" x="427.41" y="158.5183"/><ellipse cx="505.895" cy="174.5183" fill="#ADD1B2" rx="11" ry="11" style="stroke:#181818;stroke-width:1;"/><path d="M508.3681,180.6613 Q507.7871,180.9602 507.1479,181.1096 Q506.5088,181.259 505.8032,181.259 Q503.2964,181.259 501.9765,179.6071 Q500.6567,177.9553 500.6567,174.8342 Q500.6567,171.7048 501.9765,170.0529 Q503.2964,168.4011 505.8032,168.4011 Q506.5088,168.4011 507.1562,168.5505 Q507.8037,168.6999 508.3681,168.9988 L508.3681,171.7214 Q507.7373,171.1404 507.1438,170.8706 Q506.5503,170.6008 505.9194,170.6008 Q504.5747,170.6008 503.8899,171.6675 Q503.205,172.7341 503.205,174.8342 Q503.205,176.926 503.8899,177.9926 Q504.5747,179.0593 505.9194,179.0593 Q506.5503,179.0593 507.1438,178.7895 Q507.7373,178.5197 508.3681,177.9387 Z " fill="#000000"/><text fill="#111827" font-family="Casual" font-size="18" lengthAdjust="spacing" textLength="159.714" x="526.395" y="179.7473">ParameterDictionary</text><line style="stroke:#0F766E;stroke-width:0.5;" x1="428.41" x2="751.594" y1="190.5183" y2="190.5183"/><line style="stroke:#0F766E;stroke-width:0.5;" x1="428.41" x2="751.594" y1="198.5183" y2="198.5183"/><g data-visibility-modifier="PUBLIC_METHOD"><ellipse cx="438.41" cy="210.1323" fill="#84BE84" rx="3" ry="3" style="stroke:#038048;stroke-width:1;"/></g><text fill="#053583" font-family="Casual" font-size="12" lengthAdjust="spacing" textLength="299.184" x="447.41" y="212.1183">ParameterDictionary(paramArray : NameValueCollection)</text></g><!--class SearchExpression--><g class="entity" data-qualified-name="RaiUtils.SearchExpression" data-source-line="47" id="ent0005"><rect fill="#CCFBF1" height="96.912" rx="2.5" ry="2.5" style="stroke:#0F766E;stroke-width:0.5;" width="209.708" x="22.15" y="140.1783"/><ellipse cx="56.644" cy="156.1783" fill="#ADD1B2" rx="11" ry="11" style="stroke:#181818;stroke-width:1;"/><path d="M59.1171,162.3213 Q58.5361,162.6202 57.8969,162.7696 Q57.2578,162.919 56.5522,162.919 Q54.0454,162.919 52.7255,161.2671 Q51.4057,159.6153 51.4057,156.4942 Q51.4057,153.3648 52.7255,151.7129 Q54.0454,150.0611 56.5522,150.0611 Q57.2578,150.0611 57.9052,150.2105 Q58.5527,150.3599 59.1171,150.6588 L59.1171,153.3814 Q58.4863,152.8004 57.8928,152.5306 Q57.2993,152.2608 56.6684,152.2608 Q55.3237,152.2608 54.6389,153.3275 Q53.9541,154.3941 53.9541,156.4942 Q53.9541,158.586 54.6389,159.6526 Q55.3237,160.7193 56.6684,160.7193 Q57.2993,160.7193 57.8928,160.4495 Q58.4863,160.1797 59.1171,159.5987 Z " fill="#000000"/><text fill="#111827" font-family="Casual" font-size="18" lengthAdjust="spacing" textLength="134.388" x="74.976" y="161.4073">SearchExpression</text><line style="stroke:#0F766E;stroke-width:0.5;" x1="23.15" x2="230.858" y1="172.1783" y2="172.1783"/><g data-visibility-modifier="PRIVATE_FIELD"><rect fill="none" height="6" style="stroke:#C82930;stroke-width:1;" width="6" x="30.15" y="180.7923"/></g><text fill="#053583" font-family="Casual" font-size="12" lengthAdjust="spacing" textLength="128.796" x="42.15" y="185.7783">conditions : List&lt;string&gt;</text><g data-visibility-modifier="PUBLIC_FIELD"><ellipse cx="33.15" cy="196.0203" fill="none" rx="3" ry="3" style="stroke:#038048;stroke-width:1;"/></g><text fill="#053583" font-family="Casual" font-size="12" lengthAdjust="spacing" textLength="142.644" x="42.15" y="198.0063">ConditionsAsString : string</text><line style="stroke:#0F766E;stroke-width:0.5;" x1="23.15" x2="230.858" y1="204.6343" y2="204.6343"/><g data-visibility-modifier="PUBLIC_METHOD"><ellipse cx="33.15" cy="216.2483" fill="#84BE84" rx="3" ry="3" style="stroke:#038048;stroke-width:1;"/></g><text fill="#053583" font-family="Casual" font-size="12" lengthAdjust="spacing" textLength="156.54" x="42.15" y="218.2343">IsMatch(obj : object) : bool</text><g data-visibility-modifier="PUBLIC_METHOD"><ellipse cx="33.15" cy="228.4763" fill="#84BE84" rx="3" ry="3" style="stroke:#038048;stroke-width:1;"/></g><text fill="#053583" font-family="Casual" font-size="12" lengthAdjust="spacing" textLength="183.708" x="42.15" y="230.4623">SearchExpression(pattern : string)</text></g><!--class JsonConversionExtensions--><g class="entity" data-qualified-name="RaiUtils.JsonConversionExtensions" data-source-line="54" id="ent0006"><rect fill="#CCFBF1" height="72.456" rx="2.5" ry="2.5" style="stroke:#0F766E;stroke-width:0.5;" width="337.964" x="788.02" y="152.3983"/><ellipse cx="845.466" cy="168.3983" fill="#ADD1B2" rx="11" ry="11" style="stroke:#181818;stroke-width:1;"/><path d="M847.9391,174.5413 Q847.3581,174.8402 846.7189,174.9896 Q846.0798,175.139 845.3742,175.139 Q842.8674,175.139 841.5475,173.4871 Q840.2277,171.8353 840.2277,168.7142 Q840.2277,165.5848 841.5475,163.9329 Q842.8674,162.2811 845.3742,162.2811 Q846.0798,162.2811 846.7272,162.4305 Q847.3747,162.5799 847.9391,162.8788 L847.9391,165.6014 Q847.3083,165.0204 846.7148,164.7506 Q846.1213,164.4808 845.4904,164.4808 Q844.1457,164.4808 843.4609,165.5475 Q842.7761,166.6141 842.7761,168.7142 Q842.7761,170.806 843.4609,171.8726 Q844.1457,172.9393 845.4904,172.9393 Q846.1213,172.9393 846.7148,172.6695 Q847.3083,172.3997 847.9391,171.8187 Z " fill="#000000"/><text fill="#111827" font-family="Casual" font-size="18" lengthAdjust="spacing" textLength="196.2" x="865.966" y="173.6273">JsonConversionExtensions</text><text fill="#111827" font-family="Casual" font-size="12" lengthAdjust="spacing" textLength="12" x="1068.538" y="174.9413">&#9416;</text><line style="stroke:#0F766E;stroke-width:0.5;" x1="789.02" x2="1124.984" y1="184.3983" y2="184.3983"/><line style="stroke:#0F766E;stroke-width:0.5;" x1="789.02" x2="1124.984" y1="192.3983" y2="192.3983"/><g data-visibility-modifier="PUBLIC_METHOD"><ellipse cx="799.02" cy="204.0123" fill="#84BE84" rx="3" ry="3" style="stroke:#038048;stroke-width:1;"/></g><text fill="#053583" font-family="Casual" font-size="12" lengthAdjust="spacing" text-decoration="underline" textLength="311.964" x="808.02" y="205.9983">ToDictionary(json : JObject) : IDictionary&lt;string, object&gt;</text><g data-visibility-modifier="PUBLIC_METHOD"><ellipse cx="799.02" cy="216.2403" fill="#84BE84" rx="3" ry="3" style="stroke:#038048;stroke-width:1;"/></g><text fill="#053583" font-family="Casual" font-size="12" lengthAdjust="spacing" text-decoration="underline" textLength="190.068" x="808.02" y="218.2263">ToArray(array : JArray) : object[]</text></g><!--class RandomExtensions--><g class="entity" data-qualified-name="RaiUtils.RandomExtensions" data-source-line="59" id="ent0007"><rect fill="#CCFBF1" height="121.368" rx="2.5" ry="2.5" style="stroke:#0F766E;stroke-width:0.5;" width="410.264" x="1160.87" y="127.9483"/><ellipse cx="1282.843" cy="143.9483" fill="#ADD1B2" rx="11" ry="11" style="stroke:#181818;stroke-width:1;"/><path d="M1285.3161,150.0913 Q1284.7351,150.3902 1284.0959,150.5396 Q1283.4568,150.689 1282.7512,150.689 Q1280.2443,150.689 1278.9245,149.0371 Q1277.6047,147.3853 1277.6047,144.2642 Q1277.6047,141.1348 1278.9245,139.4829 Q1280.2443,137.8311 1282.7512,137.8311 Q1283.4568,137.8311 1284.1042,137.9805 Q1284.7517,138.1299 1285.3161,138.4288 L1285.3161,141.1514 Q1284.6853,140.5704 1284.0918,140.3006 Q1283.4983,140.0308 1282.8674,140.0308 Q1281.5227,140.0308 1280.8379,141.0975 Q1280.153,142.1641 1280.153,144.2642 Q1280.153,146.356 1280.8379,147.4226 Q1281.5227,148.4893 1282.8674,148.4893 Q1283.4983,148.4893 1284.0918,148.2195 Q1284.6853,147.9497 1285.3161,147.3687 Z " fill="#000000"/><text fill="#111827" font-family="Casual" font-size="18" lengthAdjust="spacing" textLength="139.446" x="1303.343" y="149.1773">RandomExtensions</text><text fill="#111827" font-family="Casual" font-size="12" lengthAdjust="spacing" textLength="12" x="1449.161" y="150.4913">&#9416;</text><line style="stroke:#0F766E;stroke-width:0.5;" x1="1161.87" x2="1570.134" y1="159.9483" y2="159.9483"/><line style="stroke:#0F766E;stroke-width:0.5;" x1="1161.87" x2="1570.134" y1="167.9483" y2="167.9483"/><g data-visibility-modifier="PUBLIC_METHOD"><ellipse cx="1171.87" cy="179.5623" fill="#84BE84" rx="3" ry="3" style="stroke:#038048;stroke-width:1;"/></g><text fill="#053583" font-family="Casual" font-size="12" lengthAdjust="spacing" text-decoration="underline" textLength="293.424" x="1180.87" y="181.5483">Random&lt;T&gt;(list : IEnumerable&lt;T&gt;, rand : Random) : T</text><g data-visibility-modifier="PUBLIC_METHOD"><ellipse cx="1171.87" cy="191.7903" fill="#84BE84" rx="3" ry="3" style="stroke:#038048;stroke-width:1;"/></g><text fill="#053583" font-family="Casual" font-size="12" lengthAdjust="spacing" text-decoration="underline" textLength="294.84" x="1180.87" y="193.7763">Shuffle&lt;T&gt;(source : IEnumerable&lt;T&gt;) : IEnumerable&lt;T&gt;</text><g data-visibility-modifier="PUBLIC_METHOD"><ellipse cx="1171.87" cy="204.0183" fill="#84BE84" rx="3" ry="3" style="stroke:#038048;stroke-width:1;"/></g><text fill="#053583" font-family="Casual" font-size="12" lengthAdjust="spacing" text-decoration="underline" textLength="384.264" x="1180.87" y="206.0043">Shuffle&lt;T&gt;(source : IEnumerable&lt;T&gt;, rand : Random) : IEnumerable&lt;T&gt;</text><g data-visibility-modifier="PUBLIC_METHOD"><ellipse cx="1171.87" cy="216.2463" fill="#84BE84" rx="3" ry="3" style="stroke:#038048;stroke-width:1;"/></g><text fill="#053583" font-family="Casual" font-size="12" lengthAdjust="spacing" text-decoration="underline" textLength="176.532" x="1180.87" y="218.2323">Shuffle&lt;T&gt;(list : IList&lt;T&gt;) : void</text><g data-visibility-modifier="PUBLIC_METHOD"><ellipse cx="1171.87" cy="228.4743" fill="#84BE84" rx="3" ry="3" style="stroke:#038048;stroke-width:1;"/></g><text fill="#053583" font-family="Casual" font-size="12" lengthAdjust="spacing" text-decoration="underline" textLength="265.956" x="1180.87" y="230.4603">Shuffle&lt;T&gt;(list : IList&lt;T&gt;, rand : Random) : void</text><g data-visibility-modifier="PUBLIC_METHOD"><ellipse cx="1171.87" cy="240.7023" fill="#84BE84" rx="3" ry="3" style="stroke:#038048;stroke-width:1;"/></g><text fill="#053583" font-family="Casual" font-size="12" lengthAdjust="spacing" text-decoration="underline" textLength="363.552" x="1180.87" y="242.6883">TakeAny&lt;T&gt;(source : IEnumerable&lt;T&gt;, take : int) : IEnumerable&lt;T&gt;</text></g><!--class StringDictionary--><g class="entity" data-qualified-name="StringDictionary" data-source-line="69" id="ent0008"><rect fill="#CCFBF1" height="52.3608" rx="2.5" ry="2.5" style="stroke:#0F766E;stroke-width:0.5;" width="270.1973" x="178.9" y="398.3183"/><ellipse cx="193.9" cy="416.4987" fill="#ADD1B2" rx="11" ry="11" style="stroke:#181818;stroke-width:1;"/><path d="M196.3731,422.6418 Q195.7921,422.9406 195.1529,423.09 Q194.5138,423.2394 193.8082,423.2394 Q191.3014,423.2394 189.9815,421.5876 Q188.6617,419.9357 188.6617,416.8146 Q188.6617,413.6852 189.9815,412.0334 Q191.3014,410.3815 193.8082,410.3815 Q194.5138,410.3815 195.1612,410.5309 Q195.8087,410.6803 196.3731,410.9792 L196.3731,413.7018 Q195.7423,413.1208 195.1488,412.851 Q194.5553,412.5812 193.9244,412.5812 Q192.5797,412.5812 191.8949,413.6479 Q191.2101,414.7145 191.2101,416.8146 Q191.2101,418.9064 191.8949,419.9731 Q192.5797,421.0397 193.9244,421.0397 Q194.5553,421.0397 195.1488,420.7699 Q195.7423,420.5002 196.3731,419.9191 Z " fill="#000000"/><text fill="#000000" font-family="sans-serif" font-size="12" font-style="italic" lengthAdjust="spacing" textLength="242.1973" x="205.9" y="414.9198">&#171;external System.Collections.Specialized&#187;</text><text fill="#111827" font-family="Casual" font-size="12" lengthAdjust="spacing" textLength="84.744" x="284.6266" y="427.0511">StringDictionary</text><line style="stroke:#0F766E;stroke-width:0.5;" x1="179.9" x2="448.0973" y1="434.6791" y2="434.6791"/><line style="stroke:#0F766E;stroke-width:0.5;" x1="179.9" x2="448.0973" y1="442.6791" y2="442.6791"/></g><!--class NameValueCollection--><g class="entity" data-qualified-name="NameValueCollection" data-source-line="70" id="ent0009"><rect fill="#CCFBF1" height="52.3608" rx="2.5" ry="2.5" style="stroke:#0F766E;stroke-width:0.5;" width="270.1973" x="483.9" y="398.3183"/><ellipse cx="498.9" cy="416.4987" fill="#ADD1B2" rx="11" ry="11" style="stroke:#181818;stroke-width:1;"/><path d="M501.3731,422.6418 Q500.7921,422.9406 500.1529,423.09 Q499.5138,423.2394 498.8082,423.2394 Q496.3014,423.2394 494.9815,421.5876 Q493.6617,419.9357 493.6617,416.8146 Q493.6617,413.6852 494.9815,412.0334 Q496.3014,410.3815 498.8082,410.3815 Q499.5138,410.3815 500.1612,410.5309 Q500.8087,410.6803 501.3731,410.9792 L501.3731,413.7018 Q500.7423,413.1208 500.1488,412.851 Q499.5553,412.5812 498.9244,412.5812 Q497.5797,412.5812 496.8949,413.6479 Q496.2101,414.7145 496.2101,416.8146 Q496.2101,418.9064 496.8949,419.9731 Q497.5797,421.0397 498.9244,421.0397 Q499.5553,421.0397 500.1488,420.7699 Q500.7423,420.5002 501.3731,419.9191 Z " fill="#000000"/><text fill="#000000" font-family="sans-serif" font-size="12" font-style="italic" lengthAdjust="spacing" textLength="242.1973" x="510.9" y="414.9198">&#171;external System.Collections.Specialized&#187;</text><text fill="#111827" font-family="Casual" font-size="12" lengthAdjust="spacing" textLength="105.696" x="579.1506" y="427.0511">NameValueCollection</text><line style="stroke:#0F766E;stroke-width:0.5;" x1="484.9" x2="753.0973" y1="434.6791" y2="434.6791"/><line style="stroke:#0F766E;stroke-width:0.5;" x1="484.9" x2="753.0973" y1="442.6791" y2="442.6791"/></g><!--class JObject--><g class="entity" data-qualified-name="JObject" data-source-line="71" id="ent0010"><rect fill="#CCFBF1" height="52.3608" rx="2.5" ry="2.5" style="stroke:#0F766E;stroke-width:0.5;" width="158.5352" x="818.73" y="398.3183"/><ellipse cx="833.73" cy="416.4987" fill="#ADD1B2" rx="11" ry="11" style="stroke:#181818;stroke-width:1;"/><path d="M836.2031,422.6418 Q835.6221,422.9406 834.9829,423.09 Q834.3438,423.2394 833.6382,423.2394 Q831.1314,423.2394 829.8115,421.5876 Q828.4917,419.9357 828.4917,416.8146 Q828.4917,413.6852 829.8115,412.0334 Q831.1314,410.3815 833.6382,410.3815 Q834.3438,410.3815 834.9912,410.5309 Q835.6387,410.6803 836.2031,410.9792 L836.2031,413.7018 Q835.5723,413.1208 834.9788,412.851 Q834.3853,412.5812 833.7544,412.5812 Q832.4097,412.5812 831.7249,413.6479 Q831.0401,414.7145 831.0401,416.8146 Q831.0401,418.9064 831.7249,419.9731 Q832.4097,421.0397 833.7544,421.0397 Q834.3853,421.0397 834.9788,420.7699 Q835.5723,420.5002 836.2031,419.9191 Z " fill="#000000"/><text fill="#000000" font-family="sans-serif" font-size="12" font-style="italic" lengthAdjust="spacing" textLength="130.5352" x="845.73" y="414.9198">&#171;external Newtonsoft&#187;</text><text fill="#111827" font-family="Casual" font-size="12" lengthAdjust="spacing" textLength="39.936" x="891.0296" y="427.0511">JObject</text><line style="stroke:#0F766E;stroke-width:0.5;" x1="819.73" x2="976.2652" y1="434.6791" y2="434.6791"/><line style="stroke:#0F766E;stroke-width:0.5;" x1="819.73" x2="976.2652" y1="442.6791" y2="442.6791"/></g><!--class JArray--><g class="entity" data-qualified-name="JArray" data-source-line="72" id="ent0011"><rect fill="#CCFBF1" height="52.3608" rx="2.5" ry="2.5" style="stroke:#0F766E;stroke-width:0.5;" width="158.5352" x="1012.73" y="398.3183"/><ellipse cx="1027.73" cy="416.4987" fill="#ADD1B2" rx="11" ry="11" style="stroke:#181818;stroke-width:1;"/><path d="M1030.2031,422.6418 Q1029.6221,422.9406 1028.9829,423.09 Q1028.3438,423.2394 1027.6382,423.2394 Q1025.1314,423.2394 1023.8115,421.5876 Q1022.4917,419.9357 1022.4917,416.8146 Q1022.4917,413.6852 1023.8115,412.0334 Q1025.1314,410.3815 1027.6382,410.3815 Q1028.3438,410.3815 1028.9912,410.5309 Q1029.6387,410.6803 1030.2031,410.9792 L1030.2031,413.7018 Q1029.5723,413.1208 1028.9788,412.851 Q1028.3853,412.5812 1027.7544,412.5812 Q1026.4097,412.5812 1025.7249,413.6479 Q1025.0401,414.7145 1025.0401,416.8146 Q1025.0401,418.9064 1025.7249,419.9731 Q1026.4097,421.0397 1027.7544,421.0397 Q1028.3853,421.0397 1028.9788,420.7699 Q1029.5723,420.5002 1030.2031,419.9191 Z " fill="#000000"/><text fill="#000000" font-family="sans-serif" font-size="12" font-style="italic" lengthAdjust="spacing" textLength="130.5352" x="1039.73" y="414.9198">&#171;external Newtonsoft&#187;</text><text fill="#111827" font-family="Casual" font-size="12" lengthAdjust="spacing" textLength="35.076" x="1087.4596" y="427.0511">JArray</text><line style="stroke:#0F766E;stroke-width:0.5;" x1="1013.73" x2="1170.2652" y1="434.6791" y2="434.6791"/><line style="stroke:#0F766E;stroke-width:0.5;" x1="1013.73" x2="1170.2652" y1="442.6791" y2="442.6791"/></g><!--class LegendSample--><g class="entity" data-qualified-name="LegendSample" data-source-line="79" id="ent0016"><rect fill="#CCFBF1" height="235.192" rx="2.5" ry="2.5" style="stroke:#0F766E;stroke-width:0.5;" width="158.54" x="1871.73" y="71.0383"/><ellipse cx="1915.0554" cy="87.0383" fill="#ADD1B2" rx="11" ry="11" style="stroke:#181818;stroke-width:1;"/><path d="M1917.5285,93.1813 Q1916.9475,93.4802 1916.3083,93.6296 Q1915.6692,93.779 1914.9636,93.779 Q1912.4568,93.779 1911.1369,92.1271 Q1909.8171,90.4753 1909.8171,87.3542 Q1909.8171,84.2248 1911.1369,82.5729 Q1912.4568,80.9211 1914.9636,80.9211 Q1915.6692,80.9211 1916.3166,81.0705 Q1916.9641,81.2199 1917.5285,81.5188 L1917.5285,84.2414 Q1916.8977,83.6604 1916.3042,83.3906 Q1915.7107,83.1208 1915.0798,83.1208 Q1913.7351,83.1208 1913.0503,84.1875 Q1912.3655,85.2541 1912.3655,87.3542 Q1912.3655,89.446 1913.0503,90.5126 Q1913.7351,91.5793 1915.0798,91.5793 Q1915.7107,91.5793 1916.3042,91.3095 Q1916.8977,91.0397 1917.5285,90.4587 Z " fill="#000000"/><text fill="#111827" font-family="Casual" font-size="12" lengthAdjust="spacing" textLength="35.04" x="1935.3499" y="90.5243">Legend</text><text fill="#111827" font-family="Casual" font-size="10" lengthAdjust="spacing" textLength="28.5547" x="1970.3899" y="90.9623">&#9416;&#9398;&#9413;</text><line style="stroke:#0F766E;stroke-width:0.5;" x1="1872.73" x2="2029.27" y1="103.0383" y2="103.0383"/><g data-visibility-modifier="PUBLIC_METHOD"><ellipse cx="1882.73" cy="114.6523" fill="#84BE84" rx="3" ry="3" style="stroke:#038048;stroke-width:1;"/></g><text fill="#053583" font-family="Casual" font-size="12" lengthAdjust="spacing" text-decoration="underline" textLength="113.232" x="1891.73" y="116.6383">staticMethod() : void</text><g data-visibility-modifier="PRIVATE_FIELD"><rect fill="none" height="6" style="stroke:#C82930;stroke-width:1;" width="6" x="1879.73" y="123.8803"/></g><text fill="#053583" font-family="Casual" font-size="12" lengthAdjust="spacing" text-decoration="underline" textLength="121.092" x="1891.73" y="128.8663">staticProperty : string</text><line style="stroke:#0F766E;stroke-width:1;" x1="1872.73" x2="2029.27" y1="135.4943" y2="135.4943"/><line style="stroke:#0F766E;stroke-width:1;" x1="1872.73" x2="2029.27" y1="137.4943" y2="137.4943"/><g data-visibility-modifier="PACKAGE_PRIVATE_FIELD"><polygon fill="none" points="1882.73,143.1083,1878.73,149.1083,1886.73,149.1083" style="stroke:#1963A0;stroke-width:1;"/></g><text fill="#053583" font-family="Casual" font-size="12" font-style="italic" lengthAdjust="spacing" textLength="132.312" x="1891.73" y="149.0943">Note on class markers :</text><text fill="#053583" font-family="Casual" font-size="10" lengthAdjust="spacing" textLength="10" x="1891.73" y="161.7603">&#9416;</text><text fill="#053583" font-family="Casual" font-size="12" lengthAdjust="spacing" textLength="24.756" x="1901.73" y="161.3223">tatic</text><text fill="#053583" font-family="Casual" font-size="10" lengthAdjust="spacing" textLength="10" x="1891.73" y="173.9883">&#9398;</text><text fill="#053583" font-family="Casual" font-size="12" lengthAdjust="spacing" textLength="38.064" x="1901.73" y="173.5503">bstract</text><text fill="#053583" font-family="Casual" font-size="12" lengthAdjust="spacing" textLength="39.8816" x="1891.73" y="185.7783">&#9413;artial</text><line style="stroke:#0F766E;stroke-width:1;" x1="1872.73" x2="2029.27" y1="192.4063" y2="192.4063"/><g data-visibility-modifier="PRIVATE_FIELD"><rect fill="none" height="6" style="stroke:#C82930;stroke-width:1;" width="6" x="1879.73" y="201.0203"/></g><text fill="#053583" font-family="Casual" font-size="12" lengthAdjust="spacing" textLength="108.132" x="1891.73" y="206.0063">privateField : string</text><g data-visibility-modifier="PUBLIC_FIELD"><ellipse cx="1882.73" cy="216.2483" fill="none" rx="3" ry="3" style="stroke:#038048;stroke-width:1;"/></g><text fill="#053583" font-family="Casual" font-size="12" lengthAdjust="spacing" textLength="102.516" x="1891.73" y="218.2343">publicField : string</text><g data-visibility-modifier="PROTECTED_FIELD"><polygon fill="none" points="1882.73,223.4763,1886.73,227.4763,1882.73,231.4763,1878.73,227.4763" style="stroke:#B38D22;stroke-width:1;"/></g><text fill="#053583" font-family="Casual" font-size="12" lengthAdjust="spacing" textLength="120.324" x="1891.73" y="230.4623">protectedField : string</text><g data-visibility-modifier="PACKAGE_PRIVATE_FIELD"><polygon fill="none" points="1882.73,236.7043,1878.73,242.7043,1886.73,242.7043" style="stroke:#1963A0;stroke-width:1;"/></g><text fill="#053583" font-family="Casual" font-size="12" lengthAdjust="spacing" textLength="112.068" x="1891.73" y="242.6903">internalField : string</text><line style="stroke:#0F766E;stroke-width:1;" x1="1872.73" x2="2029.27" y1="249.3183" y2="249.3183"/><g data-visibility-modifier="PRIVATE_METHOD"><rect fill="#F24D5C" height="6" style="stroke:#C82930;stroke-width:1;" width="6" x="1879.73" y="257.9323"/></g><text fill="#053583" font-family="Casual" font-size="12" lengthAdjust="spacing" textLength="120.348" x="1891.73" y="262.9183">privateMethod() : void</text><g data-visibility-modifier="PUBLIC_METHOD"><ellipse cx="1882.73" cy="273.1603" fill="#84BE84" rx="3" ry="3" style="stroke:#038048;stroke-width:1;"/></g><text fill="#053583" font-family="Casual" font-size="12" lengthAdjust="spacing" textLength="114.732" x="1891.73" y="275.1463">publicMethod() : void</text><g data-visibility-modifier="PROTECTED_METHOD"><polygon fill="#FFFF44" points="1882.73,280.3883,1886.73,284.3883,1882.73,288.3883,1878.73,284.3883" style="stroke:#B38D22;stroke-width:1;"/></g><text fill="#053583" font-family="Casual" font-size="12" lengthAdjust="spacing" textLength="132.54" x="1891.73" y="287.3743">protectedMethod() : void</text><g data-visibility-modifier="PACKAGE_PRIVATE_METHOD"><polygon fill="#4177AF" points="1882.73,293.6163,1878.73,299.6163,1886.73,299.6163" style="stroke:#1963A0;stroke-width:1;"/></g><text fill="#053583" font-family="Casual" font-size="12" lengthAdjust="spacing" textLength="124.284" x="1891.73" y="299.6023">internalMethod() : void</text></g><g class="entity" data-qualified-name="GMN17" data-source-line="100" id="ent0018"><path d="M1605.73,153.0083 L1605.73,224.2505 L1836.2661,224.2505 L1836.2661,163.0083 L1826.2661,153.0083 L1605.73,153.0083" fill="#FFF7D6" style="stroke:#D4B106;stroke-width:0.5;"/><path d="M1826.2661,153.0083 L1826.2661,163.0083 L1836.2661,163.0083 L1826.2661,153.0083" fill="#FFF7D6" style="stroke:#D4B106;stroke-width:1;"/><text fill="#000000" font-family="sans-serif" font-size="13" lengthAdjust="spacing" textLength="104.2666" x="1611.73" y="170.5766">Pattern features:</text><text fill="#000000" font-family="sans-serif" font-size="13" lengthAdjust="spacing" textLength="127.6387" x="1611.73" y="185.8872">- wildcard matching</text><text fill="#000000" font-family="sans-serif" font-size="13" lengthAdjust="spacing" textLength="209.5361" x="1611.73" y="201.1977">- `+` means AND within a token</text><text fill="#000000" font-family="sans-serif" font-size="13" lengthAdjust="spacing" textLength="209.022" x="1611.73" y="216.5083">- `field=value` scopes matching</text></g><g class="entity" data-qualified-name="GMN20" data-source-line="107" id="ent0021"><path d="M1607.52,381.2283 L1607.52,467.781 L1834.4761,467.781 L1834.4761,391.2283 L1824.4761,381.2283 L1607.52,381.2283" fill="#FFF7D6" style="stroke:#D4B106;stroke-width:0.5;"/><path d="M1824.4761,381.2283 L1824.4761,391.2283 L1834.4761,391.2283 L1824.4761,381.2283" fill="#FFF7D6" style="stroke:#D4B106;stroke-width:1;"/><text fill="#000000" font-family="sans-serif" font-size="13" lengthAdjust="spacing" textLength="118.6313" x="1613.52" y="398.7966">OsLib relationship:</text><text fill="#000000" font-family="sans-serif" font-size="13" lengthAdjust="spacing" textLength="181.873" x="1613.52" y="414.1072">there is no direct inheritance</text><text fill="#000000" font-family="sans-serif" font-size="13" lengthAdjust="spacing" textLength="205.9561" x="1613.52" y="429.4177">or package-level dependency on</text><text fill="#000000" font-family="sans-serif" font-size="13" lengthAdjust="spacing" textLength="176.7568" x="1613.52" y="444.7283">OsLib in the current RaiUtils</text><text fill="#000000" font-family="sans-serif" font-size="13" lengthAdjust="spacing" textLength="76.2925" x="1613.52" y="460.0388">source files.</text></g><!--link ParameterDictionary to StringDictionary--><g class="link" data-entity-1="ent0004" data-entity-2="ent0008" data-link-type="extension" data-source-line="74" id="lnk12"><path codeLine="74" d="M555.32,219.0083 C500.74,265.2683 409.432,342.6307 357.832,386.3607" fill="none" id="ParameterDictionary-to-StringDictionary" style="stroke:#9B2C2C;stroke-width:1;"/><polygon fill="none" points="344.1,397.9983,361.7112,390.938,353.9528,381.7834,344.1,397.9983" style="stroke:#9B2C2C;stroke-width:1;"/></g><!--link ParameterDictionary to NameValueCollection--><g class="link" data-entity-1="ent0004" data-entity-2="ent0009" data-link-type="dependency" data-source-line="75" id="lnk13"><path codeLine="75" d="M593.61,218.7783 C599.34,264.9383 609.6621,348.1638 615.0921,391.9838" fill="none" id="ParameterDictionary-to-NameValueCollection" style="stroke:#9B2C2C;stroke-width:1;stroke-dasharray:7,7;"/><polygon fill="#9B2C2C" points="615.83,397.9383,618.6929,388.5147,615.2151,392.9762,610.7536,389.4985,615.83,397.9383" style="stroke:#9B2C2C;stroke-width:1;"/><text fill="#374151" font-family="'Casual'" font-size="13" lengthAdjust="spacing" textLength="58.097" x="610.62" y="347.6283">ctor input</text></g><!--link JsonConversionExtensions to JObject--><g class="link" data-entity-1="ent0006" data-entity-2="ent0010" data-link-type="dependency" data-source-line="76" id="lnk14"><path codeLine="76" d="M948.04,225.1483 C936.01,272.8083 916.4176,350.4805 905.8676,392.3005" fill="none" id="JsonConversionExtensions-to-JObject" style="stroke:#9B2C2C;stroke-width:1;stroke-dasharray:7,7;"/><polygon fill="#9B2C2C" points="904.4,398.1183,910.48,390.3701,905.623,393.2702,902.723,388.4133,904.4,398.1183" style="stroke:#9B2C2C;stroke-width:1;"/><text fill="#374151" font-family="'Casual'" font-size="13" lengthAdjust="spacing" textLength="71.864" x="919.77" y="347.6283">extension on</text></g><!--link JsonConversionExtensions to JArray--><g class="link" data-entity-1="ent0006" data-entity-2="ent0011" data-link-type="dependency" data-source-line="77" id="lnk15"><path codeLine="77" d="M977.5,225.1483 C1005.02,272.8083 1050.2104,351.1019 1074.3504,392.9219" fill="none" id="JsonConversionExtensions-to-JArray" style="stroke:#9B2C2C;stroke-width:1;stroke-dasharray:7,7;"/><polygon fill="#9B2C2C" points="1077.35,398.1183,1076.3149,388.324,1074.8504,393.7879,1069.3864,392.3234,1077.35,398.1183" style="stroke:#9B2C2C;stroke-width:1;"/><text fill="#374151" font-family="'Casual'" font-size="13" lengthAdjust="spacing" textLength="71.864" x="1049.33" y="347.6283">extension on</text></g><!--link SearchExpression to GMN17--><g class="link" data-entity-1="ent0005" data-entity-2="ent0018" data-link-type="association" data-source-line="100" id="lnk19"><path d="M161.64,139.9883 C186.93,109.0983 224.25,72.0383 267.5,56.0383 C301.42,43.4883 1535.58,43.4883 1569.5,56.0383 C1620.8,75.0083 1666,120.3383 1693.38,152.7083" fill="none" id="SearchExpression-GMN17" style="stroke:#9B2C2C;stroke-width:1;stroke-dasharray:7,7;"/></g><!--link GMN17 to GMN20--><g class="link" data-entity-1="ent0018" data-entity-2="ent0021" data-link-type="association" data-source-line="107" id="lnk22"><path d="M1721,224.6383 C1721,266.4383 1721,336.2983 1721,381.1083" fill="none" id="GMN17-GMN20" style="stroke:#9B2C2C;stroke-width:1;stroke-dasharray:7,7;"/></g><?plantuml-src dLTHJ-Cu47vkVeK53rV4jjjIe6nL8d70II2MHPIxUpYTXEDCMY-fNTbEItUFVJlfddV_o_uWVicDuxHDanJsxg5jClFDp3VZ6TlzYTn235H3ZtIQtMR7ymmtCP1RodyrFDRaDAPQapDEXugEFKy_S36X-4W2oXw6IYOYF9MnL6GsuWPoUZsYePnnCIGHZNLUapdxHGfpJST0jawfJcYyLGqPy4z0EeSvPKhf9UibO8FjYJ6A1uc12oP5YcctDcAMWLoS5t6k4jkjWyx1KUT5vE_0XoD3X5JZLtmwVdj5p7im8nc-MeKLx5K_6QM3rikr69WvzaSryP-b2a4jgX1r3m-X12cqpJPZKH2rgrOl0xJRxQEzRWvmBfBnMgHW_w3JUbT450D547LOqKykJfVjXMlrkPO6obwYg1iU5b5vDk5-q6xb4ITAoLccV1ViiJrMLEPOTBhxxODs5M1zdJqzaZCISOX3xPx7wKfgpviWPpf4x6A8jyXdhyRIGTxgQ-o3Nll8FnzJ7lVVsbT_Yr1DKe55rXeq31KWkaSqhhmOecptDnhp42M1bB5zln3JWkHE3b9qVITd-EILGz_OnC20EkFCS2ceckU9LAXJMhiLYdfQ9AmHdMDGMoBacG0MCuOKirDDOG1KiT7vuyJcYR1y_ABErGItYf1RZxOiLroRlalHjynEbyeJxOgmLhiB_PuQDghBu2FAyHkvxUGgLuo8MHbCKooTRCZYKak1eQUWhDNvem5X7tIM3Nd-za-QqIQSA-jdRQZXx8dSoLnXFw8Dnh_yi6HxaLikH-jDbejVS9EkHvrcgtAPlkuiC__Zp-fiRga8vNXp5aLzWRrJz-_yUeohO_dQ0GT5WnXG-eOe1A3OuIoTkpNxmIY9eXHQrp9H34ekTagI_-YWWiEF-LjabFQT8pALFFn1U4NOalKTVO0JCN-Hl44CYhamLSoVF5pKR4tT3ApwnSrLGKZwVNYqRKvZCfXh0-FcQcvrSp01nd6B-GIXxoySLqnuwhj2_d_SPztkXiOzvzrSmyoWhOnCpYJjRcVXzg5D1bxLnjPe_EMNAbE9R3RzoZHxX1ayEV2yI8otSTAjzIAZ7e65WaZnYirYRrqpMIH_1KCGOJR1BHydzVdhz-TlV-UtKuSPqF44xmquigkUSx_k1b9VTMMZ0BXHSWBAp7DRwl6nL_lIvxuzV94FSNJ6L3rW4gJNVykn8VEqCaAflxpcw_TC4w1hoenNG_PK6UmC9DB03vaeFgLuzx57ROx2BfaaGSnPKRwD1iYA6GYBgYzsTDB6A6hM8fKAiWXLKkHYbNIhO4KLZgcmTLFfVKz6fGFFgzravqy4r2GexLbwCnw7ZAeGwuo7cUDDxdVlyUP1iLjEhiyGOb11A37o0KIgJwyenrFRjFT4CrnAlNA0ZK4ibunH88sHOw_sGL_nW2Y8QJgh8pv10cO42WZNQ412hcmZSu4oRgXWuDLm1hARJoE6ASGaX0dw1y7cjcKpfyWE7H6MA0N2BF_dUBLiruju3Bgv8lOl?></g></svg>