<svg xmlns="http://www.w3.org/2000/svg" xmlns:xlink="http://www.w3.org/1999/xlink" contentStyleType="text/css" data-diagram-type="CLASS" height="512px" preserveAspectRatio="none" style="width:2162px;height:512px;background:#FFFFFF;" version="1.1" viewBox="0 0 2162 512" width="2162px" zoomAndPan="magnify"><?plantuml 1.2026.6?><defs/><g><g class="title" data-source-line="3"><text fill="#000000" font-family="sans-serif" font-size="14" font-weight="700" lengthAdjust="spacing" textLength="164.5547" x="995.6129" y="23.5352">RaiUtils Class Diagram</text></g><!--cluster RaiUtils--><g class="cluster" data-qualified-name="RaiUtils" data-source-line="35" id="ent0001"><path d="M8.5,101.4683 L64.9463,101.4683 A3.75,3.75 0 0 1 67.4463,103.9683 L74.4463,123.9566 L1690.5,123.9566 A2.5,2.5 0 0 1 1693,126.4566 L1693,282.7683 A2.5,2.5 0 0 1 1690.5,285.2683 L8.5,285.2683 A2.5,2.5 0 0 1 6,282.7683 L6,103.9683 A2.5,2.5 0 0 1 8.5,101.4683" fill="none" style="stroke:#000000;stroke-width:1.5;"/><line style="stroke:#000000;stroke-width:1.5;" x1="6" x2="74.4463" y1="123.9566" y2="123.9566"/><text fill="#000000" font-family="sans-serif" font-size="14" font-weight="700" lengthAdjust="spacing" textLength="55.4463" x="10" y="117.0034">RaiUtils</text></g><!--class Email--><g class="entity" data-qualified-name="RaiUtils.Email" data-source-line="36" id="ent0002"><rect fill="#CCFBF1" height="104.5313" rx="2.5" ry="2.5" style="stroke:#0F766E;stroke-width:0.5;" width="128.3281" x="280.84" y="150.5983"/><ellipse cx="318.0794" cy="166.5983" fill="#ADD1B2" rx="11" ry="11" style="stroke:#181818;stroke-width:1;"/><path d="M320.5525,172.7413 Q319.9715,173.0402 319.3323,173.1896 Q318.6932,173.339 317.9876,173.339 Q315.4808,173.339 314.1609,171.6871 Q312.8411,170.0353 312.8411,166.9142 Q312.8411,163.7848 314.1609,162.1329 Q315.4808,160.4811 317.9876,160.4811 Q318.6932,160.4811 319.3406,160.6305 Q319.9881,160.7799 320.5525,161.0788 L320.5525,163.8014 Q319.9217,163.2204 319.3282,162.9506 Q318.7347,162.6808 318.1038,162.6808 Q316.7591,162.6808 316.0743,163.7475 Q315.3895,164.8141 315.3895,166.9142 Q315.3895,169.006 316.0743,170.0726 Q316.7591,171.1393 318.1038,171.1393 Q318.7347,171.1393 319.3282,170.8695 Q319.9217,170.5997 320.5525,170.0187 Z " fill="#000000"/><text fill="#111827" font-family="Casual" font-size="18" lengthAdjust="spacing" textLength="46.9072" x="337.0215" y="173.401">Email</text><line style="stroke:#0F766E;stroke-width:0.5;" x1="281.84" x2="408.1681" y1="182.5983" y2="182.5983"/><g data-visibility-modifier="PRIVATE_FIELD"><rect fill="none" height="6" style="stroke:#C82930;stroke-width:1;" width="6" x="288.84" y="192.1647"/></g><text fill="#053583" font-family="Casual" font-size="12" lengthAdjust="spacing" textLength="90.8672" x="300.84" y="198.1998">address : string</text><g data-visibility-modifier="PUBLIC_FIELD"><ellipse cx="291.84" cy="209.2975" fill="none" rx="3" ry="3" style="stroke:#038048;stroke-width:1;"/></g><text fill="#053583" font-family="Casual" font-size="12" lengthAdjust="spacing" textLength="66.1172" x="300.84" y="212.3327">Valid : bool</text><g data-visibility-modifier="PUBLIC_FIELD"><ellipse cx="291.84" cy="223.4303" fill="none" rx="3" ry="3" style="stroke:#038048;stroke-width:1;"/></g><text fill="#053583" font-family="Casual" font-size="12" lengthAdjust="spacing" textLength="75.3867" x="300.84" y="226.4655">Invalid : bool</text><line style="stroke:#0F766E;stroke-width:0.5;" x1="281.84" x2="408.1681" y1="232.9967" y2="232.9967"/><g data-visibility-modifier="PUBLIC_METHOD"><ellipse cx="291.84" cy="245.5631" fill="#84BE84" rx="3" ry="3" style="stroke:#038048;stroke-width:1;"/></g><text fill="#053583" font-family="Casual" font-size="12" lengthAdjust="spacing" textLength="102.3281" x="300.84" y="248.5983">ToString() : string</text></g><!--class ParameterDictionary--><g class="entity" data-qualified-name="RaiUtils.ParameterDictionary" data-source-line="43" id="ent0003"><rect fill="#CCFBF1" height="62.1328" rx="2.5" ry="2.5" style="stroke:#0F766E;stroke-width:0.5;" width="354.7402" x="444.63" y="171.7983"/><ellipse cx="529.2838" cy="187.7983" fill="#ADD1B2" rx="11" ry="11" style="stroke:#181818;stroke-width:1;"/><path d="M531.757,193.9413 Q531.1759,194.2402 530.5367,194.3896 Q529.8976,194.539 529.192,194.539 Q526.6852,194.539 525.3654,192.8871 Q524.0455,191.2353 524.0455,188.1142 Q524.0455,184.9848 525.3654,183.3329 Q526.6852,181.6811 529.192,181.6811 Q529.8976,181.6811 530.545,181.8305 Q531.1925,181.9799 531.757,182.2788 L531.757,185.0014 Q531.1261,184.4204 530.5326,184.1506 Q529.9391,183.8808 529.3082,183.8808 Q527.9635,183.8808 527.2787,184.9475 Q526.5939,186.0141 526.5939,188.1142 Q526.5939,190.206 527.2787,191.2726 Q527.9635,192.3393 529.3082,192.3393 Q529.9391,192.3393 530.5326,192.0695 Q531.1261,191.7997 531.757,191.2187 Z " fill="#000000"/><text fill="#111827" font-family="Casual" font-size="18" lengthAdjust="spacing" textLength="176.9326" x="549.7838" y="194.601">ParameterDictionary</text><line style="stroke:#0F766E;stroke-width:0.5;" x1="445.63" x2="798.3702" y1="203.7983" y2="203.7983"/><line style="stroke:#0F766E;stroke-width:0.5;" x1="445.63" x2="798.3702" y1="211.7983" y2="211.7983"/><g data-visibility-modifier="PUBLIC_METHOD"><ellipse cx="455.63" cy="224.3647" fill="#84BE84" rx="3" ry="3" style="stroke:#038048;stroke-width:1;"/></g><text fill="#053583" font-family="Casual" font-size="12" lengthAdjust="spacing" textLength="328.7402" x="464.63" y="227.3998">ParameterDictionary(paramArray : NameValueCollection)</text></g><!--class SearchExpression--><g class="entity" data-qualified-name="RaiUtils.SearchExpression" data-source-line="47" id="ent0004"><rect fill="#CCFBF1" height="104.5313" rx="2.5" ry="2.5" style="stroke:#0F766E;stroke-width:0.5;" width="223.1211" x="22.44" y="150.5983"/><ellipse cx="54.7211" cy="166.5983" fill="#ADD1B2" rx="11" ry="11" style="stroke:#181818;stroke-width:1;"/><path d="M57.1942,172.7413 Q56.6131,173.0402 55.974,173.1896 Q55.3348,173.339 54.6293,173.339 Q52.1224,173.339 50.8026,171.6871 Q49.4828,170.0353 49.4828,166.9142 Q49.4828,163.7848 50.8026,162.1329 Q52.1224,160.4811 54.6293,160.4811 Q55.3348,160.4811 55.9823,160.6305 Q56.6297,160.7799 57.1942,161.0788 L57.1942,163.8014 Q56.5633,163.2204 55.9698,162.9506 Q55.3763,162.6808 54.7455,162.6808 Q53.4007,162.6808 52.7159,163.7475 Q52.0311,164.8141 52.0311,166.9142 Q52.0311,169.006 52.7159,170.0726 Q53.4007,171.1393 54.7455,171.1393 Q55.3763,171.1393 55.9698,170.8695 Q56.5633,170.5997 57.1942,170.0187 Z " fill="#000000"/><text fill="#111827" font-family="Casual" font-size="18" lengthAdjust="spacing" textLength="152.7188" x="72.5613" y="173.401">SearchExpression</text><line style="stroke:#0F766E;stroke-width:0.5;" x1="23.44" x2="244.5611" y1="182.5983" y2="182.5983"/><g data-visibility-modifier="PRIVATE_FIELD"><rect fill="none" height="6" style="stroke:#C82930;stroke-width:1;" width="6" x="30.44" y="192.1647"/></g><text fill="#053583" font-family="Casual" font-size="12" lengthAdjust="spacing" textLength="145.7344" x="42.44" y="198.1998">conditions : List&lt;string&gt;</text><g data-visibility-modifier="PUBLIC_FIELD"><ellipse cx="33.44" cy="209.2975" fill="none" rx="3" ry="3" style="stroke:#038048;stroke-width:1;"/></g><text fill="#053583" font-family="Casual" font-size="12" lengthAdjust="spacing" textLength="156.9961" x="42.44" y="212.3327">ConditionsAsString : string</text><line style="stroke:#0F766E;stroke-width:0.5;" x1="23.44" x2="244.5611" y1="218.8639" y2="218.8639"/><g data-visibility-modifier="PUBLIC_METHOD"><ellipse cx="33.44" cy="231.4303" fill="#84BE84" rx="3" ry="3" style="stroke:#038048;stroke-width:1;"/></g><text fill="#053583" font-family="Casual" font-size="12" lengthAdjust="spacing" textLength="155.4375" x="42.44" y="234.4655">IsMatch(obj : object) : bool</text><g data-visibility-modifier="PUBLIC_METHOD"><ellipse cx="33.44" cy="245.5631" fill="#84BE84" rx="3" ry="3" style="stroke:#038048;stroke-width:1;"/></g><text fill="#053583" font-family="Casual" font-size="12" lengthAdjust="spacing" textLength="197.1211" x="42.44" y="248.5983">SearchExpression(pattern : string)</text></g><!--class JsonConversionExtensions--><g class="entity" data-qualified-name="RaiUtils.JsonConversionExtensions" data-source-line="54" id="ent0005"><rect fill="#CCFBF1" height="76.2656" rx="2.5" ry="2.5" style="stroke:#0F766E;stroke-width:0.5;" width="356.0176" x="833.99" y="164.7283"/><ellipse cx="885.096" cy="180.7283" fill="#ADD1B2" rx="11" ry="11" style="stroke:#181818;stroke-width:1;"/><path d="M887.5691,186.8713 Q886.988,187.1702 886.3489,187.3196 Q885.7097,187.469 885.0042,187.469 Q882.4973,187.469 881.1775,185.8171 Q879.8577,184.1653 879.8577,181.0442 Q879.8577,177.9148 881.1775,176.2629 Q882.4973,174.6111 885.0042,174.6111 Q885.7097,174.6111 886.3572,174.7605 Q887.0046,174.9099 887.5691,175.2088 L887.5691,177.9314 Q886.9382,177.3504 886.3447,177.0806 Q885.7512,176.8108 885.1204,176.8108 Q883.7756,176.8108 883.0908,177.8775 Q882.406,178.9441 882.406,181.0442 Q882.406,183.136 883.0908,184.2026 Q883.7756,185.2693 885.1204,185.2693 Q885.7512,185.2693 886.3447,184.9995 Q886.9382,184.7297 887.5691,184.1487 Z " fill="#000000"/><text fill="#111827" font-family="Casual" font-size="18" lengthAdjust="spacing" textLength="229.5088" x="905.596" y="187.531">JsonConversionExtensions</text><text fill="#111827" font-family="Casual" font-size="12" lengthAdjust="spacing" textLength="12" x="1138.9016" y="188.7966">&#9416;</text><line style="stroke:#0F766E;stroke-width:0.5;" x1="834.99" x2="1189.0076" y1="196.7283" y2="196.7283"/><line style="stroke:#0F766E;stroke-width:0.5;" x1="834.99" x2="1189.0076" y1="204.7283" y2="204.7283"/><g data-visibility-modifier="PUBLIC_METHOD"><ellipse cx="844.99" cy="217.2947" fill="#84BE84" rx="3" ry="3" style="stroke:#038048;stroke-width:1;"/></g><text fill="#053583" font-family="Casual" font-size="12" lengthAdjust="spacing" text-decoration="underline" textLength="330.0176" x="853.99" y="220.3298">ToDictionary(json : JObject) : IDictionary&lt;string, object&gt;</text><g data-visibility-modifier="PUBLIC_METHOD"><ellipse cx="844.99" cy="231.4275" fill="#84BE84" rx="3" ry="3" style="stroke:#038048;stroke-width:1;"/></g><text fill="#053583" font-family="Casual" font-size="12" lengthAdjust="spacing" text-decoration="underline" textLength="184.3125" x="853.99" y="234.4627">ToArray(array : JArray) : object[]</text></g><!--class RandomExtensions--><g class="entity" data-qualified-name="RaiUtils.RandomExtensions" data-source-line="59" id="ent0006"><rect fill="#CCFBF1" height="132.7969" rx="2.5" ry="2.5" style="stroke:#0F766E;stroke-width:0.5;" width="452.8848" x="1224.56" y="136.4683"/><ellipse cx="1355.7578" cy="152.4683" fill="#ADD1B2" rx="11" ry="11" style="stroke:#181818;stroke-width:1;"/><path d="M1358.2309,158.6113 Q1357.6498,158.9102 1357.0107,159.0596 Q1356.3715,159.209 1355.666,159.209 Q1353.1591,159.209 1351.8393,157.5571 Q1350.5195,155.9053 1350.5195,152.7842 Q1350.5195,149.6548 1351.8393,148.0029 Q1353.1591,146.3511 1355.666,146.3511 Q1356.3715,146.3511 1357.019,146.5005 Q1357.6664,146.6499 1358.2309,146.9488 L1358.2309,149.6714 Q1357.6,149.0904 1357.0065,148.8206 Q1356.413,148.5508 1355.7822,148.5508 Q1354.4374,148.5508 1353.7526,149.6175 Q1353.0678,150.6841 1353.0678,152.7842 Q1353.0678,154.876 1353.7526,155.9426 Q1354.4374,157.0093 1355.7822,157.0093 Q1356.413,157.0093 1357.0065,156.7395 Q1357.6,156.4697 1358.2309,155.8887 Z " fill="#000000"/><text fill="#111827" font-family="Casual" font-size="18" lengthAdjust="spacing" textLength="166.1924" x="1376.2578" y="159.271">RandomExtensions</text><text fill="#111827" font-family="Casual" font-size="12" lengthAdjust="spacing" textLength="12" x="1546.247" y="160.5366">&#9416;</text><line style="stroke:#0F766E;stroke-width:0.5;" x1="1225.56" x2="1676.4448" y1="168.4683" y2="168.4683"/><line style="stroke:#0F766E;stroke-width:0.5;" x1="1225.56" x2="1676.4448" y1="176.4683" y2="176.4683"/><g data-visibility-modifier="PUBLIC_METHOD"><ellipse cx="1235.56" cy="189.0347" fill="#84BE84" rx="3" ry="3" style="stroke:#038048;stroke-width:1;"/></g><text fill="#053583" font-family="Casual" font-size="12" lengthAdjust="spacing" text-decoration="underline" textLength="322.1367" x="1244.56" y="192.0698">Random&lt;T&gt;(list : IEnumerable&lt;T&gt;, rand : Random) : T</text><g data-visibility-modifier="PUBLIC_METHOD"><ellipse cx="1235.56" cy="203.1675" fill="#84BE84" rx="3" ry="3" style="stroke:#038048;stroke-width:1;"/></g><text fill="#053583" font-family="Casual" font-size="12" lengthAdjust="spacing" text-decoration="underline" textLength="333.5742" x="1244.56" y="206.2027">Shuffle&lt;T&gt;(source : IEnumerable&lt;T&gt;) : IEnumerable&lt;T&gt;</text><g data-visibility-modifier="PUBLIC_METHOD"><ellipse cx="1235.56" cy="217.3003" fill="#84BE84" rx="3" ry="3" style="stroke:#038048;stroke-width:1;"/></g><text fill="#053583" font-family="Casual" font-size="12" lengthAdjust="spacing" text-decoration="underline" textLength="426.8848" x="1244.56" y="220.3355">Shuffle&lt;T&gt;(source : IEnumerable&lt;T&gt;, rand : Random) : IEnumerable&lt;T&gt;</text><g data-visibility-modifier="PUBLIC_METHOD"><ellipse cx="1235.56" cy="231.4331" fill="#84BE84" rx="3" ry="3" style="stroke:#038048;stroke-width:1;"/></g><text fill="#053583" font-family="Casual" font-size="12" lengthAdjust="spacing" text-decoration="underline" textLength="190.3301" x="1244.56" y="234.4683">Shuffle&lt;T&gt;(list : IList&lt;T&gt;) : void</text><g data-visibility-modifier="PUBLIC_METHOD"><ellipse cx="1235.56" cy="245.5659" fill="#84BE84" rx="3" ry="3" style="stroke:#038048;stroke-width:1;"/></g><text fill="#053583" font-family="Casual" font-size="12" lengthAdjust="spacing" text-decoration="underline" textLength="283.6406" x="1244.56" y="248.6011">Shuffle&lt;T&gt;(list : IList&lt;T&gt;, rand : Random) : void</text><g data-visibility-modifier="PUBLIC_METHOD"><ellipse cx="1235.56" cy="259.6988" fill="#84BE84" rx="3" ry="3" style="stroke:#038048;stroke-width:1;"/></g><text fill="#053583" font-family="Casual" font-size="12" lengthAdjust="spacing" text-decoration="underline" textLength="402.3516" x="1244.56" y="262.7339">TakeAny&lt;T&gt;(source : IEnumerable&lt;T&gt;, take : int) : IEnumerable&lt;T&gt;</text></g><!--class StringDictionary--><g class="entity" data-qualified-name="StringDictionary" data-source-line="69" id="ent0007"><rect fill="#CCFBF1" height="54.2656" rx="2.5" ry="2.5" style="stroke:#0F766E;stroke-width:0.5;" width="270.1973" x="216.9" y="426.9383"/><ellipse cx="231.9" cy="446.0711" fill="#ADD1B2" rx="11" ry="11" style="stroke:#181818;stroke-width:1;"/><path d="M234.3731,452.2142 Q233.7921,452.513 233.1529,452.6624 Q232.5138,452.8118 231.8082,452.8118 Q229.3014,452.8118 227.9815,451.16 Q226.6617,449.5081 226.6617,446.387 Q226.6617,443.2576 227.9815,441.6058 Q229.3014,439.9539 231.8082,439.9539 Q232.5138,439.9539 233.1612,440.1033 Q233.8087,440.2527 234.3731,440.5516 L234.3731,443.2742 Q233.7423,442.6932 233.1488,442.4234 Q232.5553,442.1536 231.9244,442.1536 Q230.5797,442.1536 229.8949,443.2203 Q229.2101,444.2869 229.2101,446.387 Q229.2101,448.4788 229.8949,449.5455 Q230.5797,450.6121 231.9244,450.6121 Q232.5553,450.6121 233.1488,450.3423 Q233.7423,450.0726 234.3731,449.4915 Z " fill="#000000"/><text fill="#000000" font-family="sans-serif" font-size="12" font-style="italic" lengthAdjust="spacing" textLength="242.1973" x="243.9" y="443.5398">&#171;external System.Collections.Specialized&#187;</text><text fill="#111827" font-family="Casual" font-size="12" lengthAdjust="spacing" textLength="93.4453" x="318.276" y="457.6727">StringDictionary</text><line style="stroke:#0F766E;stroke-width:0.5;" x1="217.9" x2="486.0973" y1="465.2039" y2="465.2039"/><line style="stroke:#0F766E;stroke-width:0.5;" x1="217.9" x2="486.0973" y1="473.2039" y2="473.2039"/></g><!--class NameValueCollection--><g class="entity" data-qualified-name="NameValueCollection" data-source-line="70" id="ent0008"><rect fill="#CCFBF1" height="54.2656" rx="2.5" ry="2.5" style="stroke:#0F766E;stroke-width:0.5;" width="270.1973" x="521.9" y="426.9383"/><ellipse cx="536.9" cy="446.0711" fill="#ADD1B2" rx="11" ry="11" style="stroke:#181818;stroke-width:1;"/><path d="M539.3731,452.2142 Q538.7921,452.513 538.1529,452.6624 Q537.5138,452.8118 536.8082,452.8118 Q534.3014,452.8118 532.9815,451.16 Q531.6617,449.5081 531.6617,446.387 Q531.6617,443.2576 532.9815,441.6058 Q534.3014,439.9539 536.8082,439.9539 Q537.5138,439.9539 538.1612,440.1033 Q538.8087,440.2527 539.3731,440.5516 L539.3731,443.2742 Q538.7423,442.6932 538.1488,442.4234 Q537.5553,442.1536 536.9244,442.1536 Q535.5797,442.1536 534.8949,443.2203 Q534.2101,444.2869 534.2101,446.387 Q534.2101,448.4788 534.8949,449.5455 Q535.5797,450.6121 536.9244,450.6121 Q537.5553,450.6121 538.1488,450.3423 Q538.7423,450.0726 539.3731,449.4915 Z " fill="#000000"/><text fill="#000000" font-family="sans-serif" font-size="12" font-style="italic" lengthAdjust="spacing" textLength="242.1973" x="548.9" y="443.5398">&#171;external System.Collections.Specialized&#187;</text><text fill="#111827" font-family="Casual" font-size="12" lengthAdjust="spacing" textLength="123.6738" x="608.1617" y="457.6727">NameValueCollection</text><line style="stroke:#0F766E;stroke-width:0.5;" x1="522.9" x2="791.0973" y1="465.2039" y2="465.2039"/><line style="stroke:#0F766E;stroke-width:0.5;" x1="522.9" x2="791.0973" y1="473.2039" y2="473.2039"/></g><!--class JObject--><g class="entity" data-qualified-name="JObject" data-source-line="71" id="ent0009"><rect fill="#CCFBF1" height="54.2656" rx="2.5" ry="2.5" style="stroke:#0F766E;stroke-width:0.5;" width="158.5352" x="862.73" y="426.9383"/><ellipse cx="877.73" cy="446.0711" fill="#ADD1B2" rx="11" ry="11" style="stroke:#181818;stroke-width:1;"/><path d="M880.2031,452.2142 Q879.6221,452.513 878.9829,452.6624 Q878.3438,452.8118 877.6382,452.8118 Q875.1314,452.8118 873.8115,451.16 Q872.4917,449.5081 872.4917,446.387 Q872.4917,443.2576 873.8115,441.6058 Q875.1314,439.9539 877.6382,439.9539 Q878.3438,439.9539 878.9912,440.1033 Q879.6387,440.2527 880.2031,440.5516 L880.2031,443.2742 Q879.5723,442.6932 878.9788,442.4234 Q878.3853,442.1536 877.7544,442.1536 Q876.4097,442.1536 875.7249,443.2203 Q875.0401,444.2869 875.0401,446.387 Q875.0401,448.4788 875.7249,449.5455 Q876.4097,450.6121 877.7544,450.6121 Q878.3853,450.6121 878.9788,450.3423 Q879.5723,450.0726 880.2031,449.4915 Z " fill="#000000"/><text fill="#000000" font-family="sans-serif" font-size="12" font-style="italic" lengthAdjust="spacing" textLength="130.5352" x="889.73" y="443.5398">&#171;external Newtonsoft&#187;</text><text fill="#111827" font-family="Casual" font-size="12" lengthAdjust="spacing" textLength="41.5781" x="934.2085" y="457.6727">JObject</text><line style="stroke:#0F766E;stroke-width:0.5;" x1="863.73" x2="1020.2652" y1="465.2039" y2="465.2039"/><line style="stroke:#0F766E;stroke-width:0.5;" x1="863.73" x2="1020.2652" y1="473.2039" y2="473.2039"/></g><!--class JArray--><g class="entity" data-qualified-name="JArray" data-source-line="72" id="ent0010"><rect fill="#CCFBF1" height="54.2656" rx="2.5" ry="2.5" style="stroke:#0F766E;stroke-width:0.5;" width="158.5352" x="1056.73" y="426.9383"/><ellipse cx="1071.73" cy="446.0711" fill="#ADD1B2" rx="11" ry="11" style="stroke:#181818;stroke-width:1;"/><path d="M1074.2031,452.2142 Q1073.6221,452.513 1072.9829,452.6624 Q1072.3438,452.8118 1071.6382,452.8118 Q1069.1314,452.8118 1067.8115,451.16 Q1066.4917,449.5081 1066.4917,446.387 Q1066.4917,443.2576 1067.8115,441.6058 Q1069.1314,439.9539 1071.6382,439.9539 Q1072.3438,439.9539 1072.9912,440.1033 Q1073.6387,440.2527 1074.2031,440.5516 L1074.2031,443.2742 Q1073.5723,442.6932 1072.9788,442.4234 Q1072.3853,442.1536 1071.7544,442.1536 Q1070.4097,442.1536 1069.7249,443.2203 Q1069.0401,444.2869 1069.0401,446.387 Q1069.0401,448.4788 1069.7249,449.5455 Q1070.4097,450.6121 1071.7544,450.6121 Q1072.3853,450.6121 1072.9788,450.3423 Q1073.5723,450.0726 1074.2031,449.4915 Z " fill="#000000"/><text fill="#000000" font-family="sans-serif" font-size="12" font-style="italic" lengthAdjust="spacing" textLength="130.5352" x="1083.73" y="443.5398">&#171;external Newtonsoft&#187;</text><text fill="#111827" font-family="Casual" font-size="12" lengthAdjust="spacing" textLength="34.7285" x="1131.6333" y="457.6727">JArray</text><line style="stroke:#0F766E;stroke-width:0.5;" x1="1057.73" x2="1214.2652" y1="465.2039" y2="465.2039"/><line style="stroke:#0F766E;stroke-width:0.5;" x1="1057.73" x2="1214.2652" y1="473.2039" y2="473.2039"/></g><!--class LegendSample--><g class="entity" data-qualified-name="LegendSample" data-source-line="79" id="ent0015"><rect fill="#CCFBF1" height="261.8594" rx="2.5" ry="2.5" style="stroke:#0F766E;stroke-width:0.5;" width="169.5605" x="1978.22" y="71.9383"/><ellipse cx="2023.347" cy="87.9383" fill="#ADD1B2" rx="11" ry="11" style="stroke:#181818;stroke-width:1;"/><path d="M2025.8201,94.0813 Q2025.239,94.3802 2024.5999,94.5296 Q2023.9607,94.679 2023.2552,94.679 Q2020.7483,94.679 2019.4285,93.0271 Q2018.1087,91.3753 2018.1087,88.2542 Q2018.1087,85.1248 2019.4285,83.4729 Q2020.7483,81.8211 2023.2552,81.8211 Q2023.9607,81.8211 2024.6082,81.9705 Q2025.2556,82.1199 2025.8201,82.4187 L2025.8201,85.1414 Q2025.1892,84.5604 2024.5957,84.2906 Q2024.0022,84.0208 2023.3714,84.0208 Q2022.0266,84.0208 2021.3418,85.0875 Q2020.657,86.1541 2020.657,88.2542 Q2020.657,90.346 2021.3418,91.4126 Q2022.0266,92.4793 2023.3714,92.4793 Q2024.0022,92.4793 2024.5957,92.2095 Q2025.1892,91.9397 2025.8201,91.3587 Z " fill="#000000"/><text fill="#111827" font-family="Casual" font-size="12" lengthAdjust="spacing" textLength="42.252" x="2043.847" y="92.4734">Legend</text><text fill="#111827" font-family="Casual" font-size="10" lengthAdjust="spacing" textLength="28.5547" x="2086.0989" y="92.8953">&#9416;&#9398;&#9413;</text><line style="stroke:#0F766E;stroke-width:0.5;" x1="1979.22" x2="2146.7805" y1="103.9383" y2="103.9383"/><g data-visibility-modifier="PUBLIC_METHOD"><ellipse cx="1989.22" cy="116.5047" fill="#84BE84" rx="3" ry="3" style="stroke:#038048;stroke-width:1;"/></g><text fill="#053583" font-family="Casual" font-size="12" lengthAdjust="spacing" text-decoration="underline" textLength="119.0156" x="1998.22" y="119.5398">staticMethod() : void</text><g data-visibility-modifier="PRIVATE_FIELD"><rect fill="none" height="6" style="stroke:#C82930;stroke-width:1;" width="6" x="1986.22" y="127.6375"/></g><text fill="#053583" font-family="Casual" font-size="12" lengthAdjust="spacing" text-decoration="underline" textLength="125.4609" x="1998.22" y="133.6727">staticProperty : string</text><line style="stroke:#0F766E;stroke-width:1;" x1="1979.22" x2="2146.7805" y1="140.2039" y2="140.2039"/><line style="stroke:#0F766E;stroke-width:1;" x1="1979.22" x2="2146.7805" y1="142.2039" y2="142.2039"/><g data-visibility-modifier="PACKAGE_PRIVATE_FIELD"><polygon fill="none" points="1989.22,148.7703,1985.22,154.7703,1993.22,154.7703" style="stroke:#1963A0;stroke-width:1;stroke-linejoin:miter;stroke-miterlimit:10;"/></g><text fill="#053583" font-family="Casual" font-size="12" font-style="italic" lengthAdjust="spacing" textLength="137.1563" x="1998.22" y="155.8055">Note on class markers :</text><text fill="#053583" font-family="Casual" font-size="10" lengthAdjust="spacing" textLength="10" x="1998.22" y="170.3602">&#9416;</text><text fill="#053583" font-family="Casual" font-size="12" lengthAdjust="spacing" textLength="25.2188" x="2008.22" y="169.9383">tatic</text><text fill="#053583" font-family="Casual" font-size="10" lengthAdjust="spacing" textLength="10" x="1998.22" y="184.493">&#9398;</text><text fill="#053583" font-family="Casual" font-size="12" lengthAdjust="spacing" textLength="40.3301" x="2008.22" y="184.0711">bstract</text><text fill="#053583" font-family="Casual" font-size="12" lengthAdjust="spacing" textLength="39.8555" x="1998.22" y="198.2039">&#9413;artial</text><line style="stroke:#0F766E;stroke-width:1;" x1="1979.22" x2="2146.7805" y1="204.7352" y2="204.7352"/><g data-visibility-modifier="PRIVATE_FIELD"><rect fill="none" height="6" style="stroke:#C82930;stroke-width:1;" width="6" x="1986.22" y="214.3016"/></g><text fill="#053583" font-family="Casual" font-size="12" lengthAdjust="spacing" textLength="112.8574" x="1998.22" y="220.3367">privateField : string</text><g data-visibility-modifier="PUBLIC_FIELD"><ellipse cx="1989.22" cy="231.4344" fill="none" rx="3" ry="3" style="stroke:#038048;stroke-width:1;"/></g><text fill="#053583" font-family="Casual" font-size="12" lengthAdjust="spacing" textLength="108.5508" x="1998.22" y="234.4695">publicField : string</text><g data-visibility-modifier="PROTECTED_FIELD"><polygon fill="none" points="1989.22,240.5672,1993.22,244.5672,1989.22,248.5672,1985.22,244.5672" style="stroke:#B38D22;stroke-width:1;stroke-linejoin:miter;stroke-miterlimit:10;"/></g><text fill="#053583" font-family="Casual" font-size="12" lengthAdjust="spacing" textLength="128.7949" x="1998.22" y="248.6023">protectedField : string</text><g data-visibility-modifier="PACKAGE_PRIVATE_FIELD"><polygon fill="none" points="1989.22,255.7,1985.22,261.7,1993.22,261.7" style="stroke:#1963A0;stroke-width:1;stroke-linejoin:miter;stroke-miterlimit:10;"/></g><text fill="#053583" font-family="Casual" font-size="12" lengthAdjust="spacing" textLength="117.457" x="1998.22" y="262.7352">internalField : string</text><line style="stroke:#0F766E;stroke-width:1;" x1="1979.22" x2="2146.7805" y1="269.2664" y2="269.2664"/><g data-visibility-modifier="PRIVATE_METHOD"><rect fill="#F24D5C" height="6" style="stroke:#C82930;stroke-width:1;" width="6" x="1986.22" y="278.8328"/></g><text fill="#053583" font-family="Casual" font-size="12" lengthAdjust="spacing" textLength="127.623" x="1998.22" y="284.868">privateMethod() : void</text><g data-visibility-modifier="PUBLIC_METHOD"><ellipse cx="1989.22" cy="295.9656" fill="#84BE84" rx="3" ry="3" style="stroke:#038048;stroke-width:1;"/></g><text fill="#053583" font-family="Casual" font-size="12" lengthAdjust="spacing" textLength="123.3164" x="1998.22" y="299.0008">publicMethod() : void</text><g data-visibility-modifier="PROTECTED_METHOD"><polygon fill="#FFFF44" points="1989.22,305.0984,1993.22,309.0984,1989.22,313.0984,1985.22,309.0984" style="stroke:#B38D22;stroke-width:1;stroke-linejoin:miter;stroke-miterlimit:10;"/></g><text fill="#053583" font-family="Casual" font-size="12" lengthAdjust="spacing" textLength="143.5605" x="1998.22" y="313.1336">protectedMethod() : void</text><g data-visibility-modifier="PACKAGE_PRIVATE_METHOD"><polygon fill="#4177AF" points="1989.22,320.2313,1985.22,326.2313,1993.22,326.2313" style="stroke:#1963A0;stroke-width:1;stroke-linejoin:miter;stroke-miterlimit:10;"/></g><text fill="#053583" font-family="Casual" font-size="12" lengthAdjust="spacing" textLength="132.2227" x="1998.22" y="327.2664">internalMethod() : void</text></g><g class="entity" data-qualified-name="GMN16" data-source-line="100" id="ent0017"><path d="M1712.73,167.2483 L1712.73,238.4905 L1943.2661,238.4905 L1943.2661,177.2483 L1933.2661,167.2483 L1712.73,167.2483" fill="#FFF7D6" style="stroke:#D4B106;stroke-width:0.5;"/><path d="M1933.2661,167.2483 L1933.2661,177.2483 L1943.2661,177.2483 L1933.2661,167.2483" fill="#FFF7D6" style="stroke:#D4B106;stroke-width:1;"/><text fill="#000000" font-family="sans-serif" font-size="13" lengthAdjust="spacing" textLength="104.2666" x="1718.73" y="184.8166">Pattern features:</text><text fill="#000000" font-family="sans-serif" font-size="13" lengthAdjust="spacing" textLength="127.6387" x="1718.73" y="200.1272">- wildcard matching</text><text fill="#000000" font-family="sans-serif" font-size="13" lengthAdjust="spacing" textLength="209.5361" x="1718.73" y="215.4377">- `+` means AND within a token</text><text fill="#000000" font-family="sans-serif" font-size="13" lengthAdjust="spacing" textLength="209.022" x="1718.73" y="230.7483">- `field=value` scopes matching</text></g><g class="entity" data-qualified-name="GMN19" data-source-line="107" id="ent0020"><path d="M1714.52,410.7983 L1714.52,497.351 L1941.4761,497.351 L1941.4761,420.7983 L1931.4761,410.7983 L1714.52,410.7983" fill="#FFF7D6" style="stroke:#D4B106;stroke-width:0.5;"/><path d="M1931.4761,410.7983 L1931.4761,420.7983 L1941.4761,420.7983 L1931.4761,410.7983" fill="#FFF7D6" style="stroke:#D4B106;stroke-width:1;"/><text fill="#000000" font-family="sans-serif" font-size="13" lengthAdjust="spacing" textLength="118.6313" x="1720.52" y="428.3666">OsLib relationship:</text><text fill="#000000" font-family="sans-serif" font-size="13" lengthAdjust="spacing" textLength="181.873" x="1720.52" y="443.6772">there is no direct inheritance</text><text fill="#000000" font-family="sans-serif" font-size="13" lengthAdjust="spacing" textLength="205.9561" x="1720.52" y="458.9877">or package-level dependency on</text><text fill="#000000" font-family="sans-serif" font-size="13" lengthAdjust="spacing" textLength="176.7568" x="1720.52" y="474.2983">OsLib in the current RaiUtils</text><text fill="#000000" font-family="sans-serif" font-size="13" lengthAdjust="spacing" textLength="76.2925" x="1720.52" y="489.6088">source files.</text></g><!--link ParameterDictionary to StringDictionary--><g class="link" data-entity-1="ent0003" data-entity-2="ent0007" data-link-type="extension" data-source-line="74" id="lnk11"><path codeLine="74" d="M588.89,234.4283 C535.52,283.6783 444.5858,367.6085 394.0758,414.2385" fill="none" id="ParameterDictionary-to-StringDictionary" style="stroke:#9B2C2C;stroke-width:1;"/><polygon fill="none" points="380.85,426.4483,398.1457,418.6471,390.0058,409.8299,380.85,426.4483" style="stroke:#9B2C2C;stroke-width:1;stroke-linejoin:miter;stroke-miterlimit:10;"/></g><!--link ParameterDictionary to NameValueCollection--><g class="link" data-entity-1="ent0003" data-entity-2="ent0008" data-link-type="dependency" data-source-line="75" id="lnk12"><path codeLine="75" d="M626.29,234.4283 C633.21,283.6783 646.0145,374.8669 652.5645,421.4969" fill="none" id="ParameterDictionary-to-NameValueCollection" style="stroke:#9B2C2C;stroke-width:1;stroke-dasharray:7,7;"/><polygon fill="#9B2C2C" points="653.26,426.4483,655.9692,416.9794,652.5645,421.4969,648.047,418.0922,653.26,426.4483" style="stroke:#9B2C2C;stroke-width:1;stroke-linejoin:miter;stroke-miterlimit:10;"/><text fill="#374151" font-family="'Casual'" font-size="13" lengthAdjust="spacing" textLength="61.877" x="647.66" y="377.3666">ctor input</text></g><!--link JsonConversionExtensions to JObject--><g class="link" data-entity-1="ent0005" data-entity-2="ent0009" data-link-type="dependency" data-source-line="76" id="lnk13"><path codeLine="76" d="M1001.44,241.4483 C987.12,292.4383 963.2424,377.4447 950.7624,421.8647" fill="none" id="JsonConversionExtensions-to-JObject" style="stroke:#9B2C2C;stroke-width:1;stroke-dasharray:7,7;"/><polygon fill="#9B2C2C" points="949.41,426.6783,955.6952,419.0957,950.7624,421.8647,947.9934,416.9318,949.41,426.6783" style="stroke:#9B2C2C;stroke-width:1;stroke-linejoin:miter;stroke-miterlimit:10;"/><text fill="#374151" font-family="'Casual'" font-size="13" lengthAdjust="spacing" textLength="81.9927" x="967.64" y="377.3666">extension on</text></g><!--link JsonConversionExtensions to JArray--><g class="link" data-entity-1="ent0005" data-entity-2="ent0010" data-link-type="dependency" data-source-line="77" id="lnk14"><path codeLine="77" d="M1030.7,241.4483 C1056.07,292.4383 1098.532,377.7821 1120.642,422.2021" fill="none" id="JsonConversionExtensions-to-JArray" style="stroke:#9B2C2C;stroke-width:1;stroke-dasharray:7,7;"/><polygon fill="#9B2C2C" points="1122.87,426.6783,1122.4405,416.8388,1120.642,422.2021,1115.2787,420.4036,1122.87,426.6783" style="stroke:#9B2C2C;stroke-width:1;stroke-linejoin:miter;stroke-miterlimit:10;"/><text fill="#374151" font-family="'Casual'" font-size="13" lengthAdjust="spacing" textLength="81.9927" x="1100.36" y="377.3666">extension on</text></g><!--link SearchExpression to GMN16--><g class="link" data-entity-1="ent0004" data-entity-2="ent0017" data-link-type="association" data-source-line="100" id="lnk18"><path d="M168.5,150.1283 C194.53,115.7783 233.7,74.2483 280.5,56.9383 C316.84,43.4883 1639.16,43.4883 1675.5,56.9383 C1731.35,77.5983 1777.74,130.8283 1804.18,166.9583" fill="none" id="SearchExpression-GMN16" style="stroke:#9B2C2C;stroke-width:1;stroke-dasharray:7,7;"/></g><!--link GMN16 to GMN19--><g class="link" data-entity-1="ent0017" data-entity-2="ent0020" data-link-type="association" data-source-line="107" id="lnk21"><path d="M1828,238.7783 C1828,283.7883 1828,362.0083 1828,410.4683" fill="none" id="GMN16-GMN19" style="stroke:#9B2C2C;stroke-width:1;stroke-dasharray:7,7;"/></g><?plantuml-src dLVDRkCs43vRJq4aXzh8scl5-Ll3CP0cAP0WcmtYj3qK1K9H8viRcJH8oevtcxqLw7dtNVQ1yYGTYh8jItAoxS6sDFFDp3V36PB-YTn235H3btHQlj_oFSzm4mEvfVnNmsDDJcEgDJdZTAZesFFq0nSJYeyaeEnXg6GYmbCPIqLc8suWfzSZ6ieP5qCIqLZdDPcpNwGmrtGCPEkKweJ6MzMG0Vy4f7EGKwQKNh9U0ZROdXYZU90Ok61If1Y_lH6p3EJYl8XpbTXkxtVsZpel8dy7FXmP8gGQl-BJyTijOjw36SdmrIgiOA_woIZjjr-knS3CiJ-gYVyiLGXgKONeyE00If12ssmp5WMHNxLw6S3t_QFTmnpWN2JZjKZ1tdwd_Qw8A0QA8EgmefzSd4Es6wxLvreQA7k9eiFme8ZAimdt0h-THvme9MUPybsmotPPKPbZqJdSy_VzAi3wEdjw96SauX27sZsFqvNKdZT1pdI8sCKGRv7FNesbWxpLqzW7NV-eVpwcFEwzjQ_zBK8rIGKMMMlIC5I0w2xHkF9YYBATtsZCGvG4KiRs_K9C2v8xEKZHzKREyCahXxwnYO41TSQPuL9GDSyJgL2dj7Og5FMqI5WZEiUWjaJ8Cm4iPWmffb5DOG1KiT7vuyJcYR1y_ABErGItYf1RZxOiLroRdaknRvcTBfKdsXLXhNON-ZqrR5INmKUKupToQ-GgLuo8MHbCKooTRCZYKak1eQUWhDNvem5X7tIM3Nd-za-QqIQSA-jdRQZXx8dSoLnXFw8Dnh_yi6HxaLikH-jDbak_u2PTZphDLkKoVMqiC__Zp-fiRga8vNXp5aLzWRrJz-xwzHXNn_Ar0mwA1Z6Wz0rH242nmrawTslsWr4IHIcqhcMY69HSD4gI_-YWWiEF-LjabFQT8pALFFn1U4NOalKTVO0JCN-Hl44CYhamLSoVF5pKR4tT3ApwnSrLGKXwFNYqRKvZCfXh0-FMQcvrQp01nd6B-GHXlxzmN37XgUyA-VzndtMx6nhtd7Tp3JE3jZ8oEPEqkvs5suSs6NXL6rkp-LU_L9bAPAlLhqopIvZ1amFFYyHu6oVTMYyowX9OA8WKhzWizjOraqNoLp044MOJtExZf3v__VxyxU_yTkem0pgUuBq1HtRLS-xNtK3ggwvi5W0tIav0cNbkIpq-zcfVUhnl3r_aGnoTCLKFc0JfzjvoRCWyhOnGwY-l-VezqmJecZBZrP0zLGOx0uaqyKCcYayftdtiKPkZi4CcIH1pLfHlem6oOWR2ekgB7PsqCOgQjKYbWYn2bHIvM2NTAbXHXMCgRDrKUj-JKUd0ysetsVaJ0JK9IhkMtep78QCgn3hZOUPua_kTUxnvKEoMa-ipX1XK44gCV02HwjChol7KDkqzqGoNKgySO6CGooLZ54XZvDYhVT1NF20AOfhEweXFa80PWGB2DHgGa2lRo5oWZ1ig67Wrd87ivjECOGen2M62_a6mkMtPp2coGqU49Kg1CCl_ELujs_KY7eDkhOZz2m00?></g></svg>